<svg width="40" height="40" viewBox="0 0 40 40" fill="none" xmlns="http://www.w3.org/2000/svg">
<path d="M30.4832 10.879V34.379C25.6499 34.2123 15.3832 33.979 12.9832 34.379C10.758 34.7498 11.5587 26.0432 12.3247 22.1331C11.4895 23.6637 10.014 25.894 8.69509 27.873C7.11485 30.2442 2.62268 28.3453 1.82799 28.6343C1.66132 27.6343 2.53611 26.4915 3.33611 26.8915C3.71003 27.0784 5.58898 29.2663 7.24312 25.6277C10.0127 19.5353 12.902 10.2026 13.2151 8.6374C13.4814 7.30572 13.6988 4.02741 18.2039 4.70888C22.1563 5.30676 30.4832 9.71064 30.4832 10.879Z" fill="black"/>
<path d="M30.4832 34.379C30.4832 27.379 30.4832 12.879 30.4832 10.879C30.4832 9.71064 22.1563 5.30676 18.2039 4.70888C13.6988 4.02741 13.4814 7.30572 13.2151 8.6374C12.902 10.2026 10.0127 19.5353 7.24312 25.6277C5.58898 29.2663 3.71003 27.0784 3.33611 26.8915C2.53611 26.4915 1.66132 27.6343 1.82799 28.6343C2.62268 28.3453 7.11485 30.2442 8.69509 27.873C10.7604 24.7739 13.2098 21.0588 12.9832 20.379C12.4832 18.879 9.98312 34.879 12.9832 34.379C15.3832 33.979 25.6499 34.2123 30.4832 34.379Z" stroke="white" stroke-width="0.3"/>
<path d="M3.15088 27.3921C3.15088 27.5302 3.03895 27.6421 2.90088 27.6421C2.76281 27.6421 2.65088 27.5302 2.65088 27.3921C2.65088 27.254 2.76281 27.1421 2.90088 27.1421C3.03895 27.1421 3.15088 27.254 3.15088 27.3921Z" fill="white" stroke="black"/>
<path d="M3.15088 28.042C3.15088 28.18 3.03895 28.292 2.90088 28.292C2.76281 28.292 2.65088 28.18 2.65088 28.042C2.65088 27.9039 2.76281 27.792 2.90088 27.792C3.03895 27.792 3.15088 27.9039 3.15088 28.042Z" fill="white" stroke="white"/>
<circle cx="17.4094" cy="13.241" r="1.44226" fill="white"/>
<rect x="5.2" y="34.2" width="29.6" height="2.6" fill="black" stroke="white" stroke-width="0.4"/>
</svg>
