<svg width="40" height="40" viewBox="0 0 40 40" fill="none" xmlns="http://www.w3.org/2000/svg">
<mask id="path-1-inside-1_32_36" fill="white">
<path d="M21.0079 1.15668C21.9189 1.25655 23.4217 2.46764 24.1446 3.1186L23.5099 4.17914C22.9866 3.70796 21.5424 2.76619 20.8829 2.69379C20.2235 2.62152 19.5599 2.7694 18.9698 3.1186C18.3798 3.4678 17.8876 4.00464 17.5509 4.66645C17.2142 5.32824 17.046 6.08779 17.0675 6.8559C17.089 7.62395 17.299 8.36934 17.672 9.00434C18.045 9.63932 18.5666 10.1378 19.1749 10.4418C19.7832 10.7458 20.4536 10.8428 21.1075 10.7211C21.7615 10.5992 22.6713 9.74531 23.1671 9.23578L24.1446 9.87348C23.4597 10.5773 22.2219 12.0769 21.3185 12.2455C21.1985 12.2679 21.0776 12.2836 20.9571 12.2954V13.9379C23.2483 10.1687 26.3731 8.17297 29.2345 9.12934C33.5492 10.572 35.6292 18.1806 33.88 26.1235C32.1305 34.0664 27.2144 39.3359 22.8995 37.894C21.7693 37.5162 20.794 36.7142 19.9991 35.5952C19.2043 36.714 18.2307 37.5172 17.1007 37.895C12.7858 39.3371 7.86975 34.0672 6.12021 26.1245C4.37086 18.1817 6.45021 10.5733 10.7647 9.13031C13.6269 8.17357 16.7517 10.1708 19.0431 13.9418V12.0317C18.9099 11.9806 18.777 11.9245 18.6476 11.8598C17.8074 11.4397 17.0876 10.7506 16.5724 9.87348C16.0571 8.99619 15.7681 7.9668 15.7384 6.90571C15.7087 5.84464 15.9393 4.79549 16.4044 3.88129C16.8696 2.96702 17.5502 2.22502 18.3653 1.74262C19.1804 1.26032 20.097 1.05685 21.0079 1.15668ZM17.336 20.8237C16.4489 16.5773 13.7764 13.7539 11.3663 14.518C8.95644 15.2823 7.72164 19.3442 8.60849 23.5903C9.49558 27.8365 12.1692 30.6599 14.5792 29.8959C16.989 29.1315 18.223 25.0698 17.336 20.8237ZM28.6339 14.518C26.2239 13.7539 23.5514 16.5767 22.6642 20.8227C21.7771 25.069 23.0119 29.1308 25.422 29.895C27.8318 30.6584 30.5046 27.8362 31.3917 23.5903C32.2786 19.3442 31.0437 15.2824 28.6339 14.518Z"/>
</mask>
<path d="M21.0079 1.15668C21.9189 1.25655 23.4217 2.46764 24.1446 3.1186L23.5099 4.17914C22.9866 3.70796 21.5424 2.76619 20.8829 2.69379C20.2235 2.62152 19.5599 2.7694 18.9698 3.1186C18.3798 3.4678 17.8876 4.00464 17.5509 4.66645C17.2142 5.32824 17.046 6.08779 17.0675 6.8559C17.089 7.62395 17.299 8.36934 17.672 9.00434C18.045 9.63932 18.5666 10.1378 19.1749 10.4418C19.7832 10.7458 20.4536 10.8428 21.1075 10.7211C21.7615 10.5992 22.6713 9.74531 23.1671 9.23578L24.1446 9.87348C23.4597 10.5773 22.2219 12.0769 21.3185 12.2455C21.1985 12.2679 21.0776 12.2836 20.9571 12.2954V13.9379C23.2483 10.1687 26.3731 8.17297 29.2345 9.12934C33.5492 10.572 35.6292 18.1806 33.88 26.1235C32.1305 34.0664 27.2144 39.3359 22.8995 37.894C21.7693 37.5162 20.794 36.7142 19.9991 35.5952C19.2043 36.714 18.2307 37.5172 17.1007 37.895C12.7858 39.3371 7.86975 34.0672 6.12021 26.1245C4.37086 18.1817 6.45021 10.5733 10.7647 9.13031C13.6269 8.17357 16.7517 10.1708 19.0431 13.9418V12.0317C18.9099 11.9806 18.777 11.9245 18.6476 11.8598C17.8074 11.4397 17.0876 10.7506 16.5724 9.87348C16.0571 8.99619 15.7681 7.9668 15.7384 6.90571C15.7087 5.84464 15.9393 4.79549 16.4044 3.88129C16.8696 2.96702 17.5502 2.22502 18.3653 1.74262C19.1804 1.26032 20.097 1.05685 21.0079 1.15668ZM17.336 20.8237C16.4489 16.5773 13.7764 13.7539 11.3663 14.518C8.95644 15.2823 7.72164 19.3442 8.60849 23.5903C9.49558 27.8365 12.1692 30.6599 14.5792 29.8959C16.989 29.1315 18.223 25.0698 17.336 20.8237ZM28.6339 14.518C26.2239 13.7539 23.5514 16.5767 22.6642 20.8227C21.7771 25.069 23.0119 29.1308 25.422 29.895C27.8318 30.6584 30.5046 27.8362 31.3917 23.5903C32.2786 19.3442 31.0437 15.2824 28.6339 14.518Z" fill="black"/>
<path d="M21.0079 1.15668L21.0515 0.759064L21.0515 0.759063L21.0079 1.15668ZM24.1446 3.1186L24.4878 3.32402L24.6569 3.0416L24.4123 2.82135L24.1446 3.1186ZM23.5099 4.17914L23.2422 4.47639L23.6034 4.80168L23.8531 4.38457L23.5099 4.17914ZM20.8829 2.69379L20.9266 2.29618L20.9265 2.29617L20.8829 2.69379ZM18.9698 3.1186L18.7661 2.77436L18.7661 2.77436L18.9698 3.1186ZM17.5509 4.66645L17.1944 4.48504L17.1944 4.48506L17.5509 4.66645ZM17.0675 6.8559L16.6676 6.86708L16.6676 6.86712L17.0675 6.8559ZM17.672 9.00434L17.3271 9.20693L17.3271 9.20695L17.672 9.00434ZM19.1749 10.4418L18.9961 10.7996L18.9961 10.7997L19.1749 10.4418ZM21.1075 10.7211L21.1807 11.1144L21.1808 11.1144L21.1075 10.7211ZM23.1671 9.23578L23.3856 8.90077L23.11 8.72093L22.8804 8.95683L23.1671 9.23578ZM24.1446 9.87348L24.4313 10.1524L24.7703 9.80405L24.3632 9.53846L24.1446 9.87348ZM21.3185 12.2455L21.3916 12.6388L21.3918 12.6388L21.3185 12.2455ZM20.9571 12.2954L20.9184 11.8972L20.5571 11.9324V12.2954H20.9571ZM20.9571 13.9379H20.5571V15.3661L21.2989 14.1457L20.9571 13.9379ZM29.2345 9.12934L29.3613 8.74998L29.3613 8.74997L29.2345 9.12934ZM33.88 26.1235L34.2706 26.2095L34.2706 26.2095L33.88 26.1235ZM22.8995 37.894L22.7727 38.2734L22.7727 38.2734L22.8995 37.894ZM19.9991 35.5952L20.3252 35.3635L19.9991 34.9045L19.673 35.3635L19.9991 35.5952ZM17.1007 37.895L17.2275 38.2743L17.2275 38.2743L17.1007 37.895ZM6.12021 26.1245L5.72957 26.2105L5.72957 26.2105L6.12021 26.1245ZM10.7647 9.13031L10.6379 8.75095L10.6379 8.75097L10.7647 9.13031ZM19.0431 13.9418L18.7012 14.1495L19.4431 15.3705V13.9418H19.0431ZM19.0431 12.0317H19.4431V11.7567L19.1863 11.6582L19.0431 12.0317ZM18.6476 11.8598L18.4687 12.2176L18.4687 12.2176L18.6476 11.8598ZM16.5724 9.87348L16.2275 10.0761L16.2275 10.0761L16.5724 9.87348ZM15.7384 6.90571L15.3385 6.91689L15.3385 6.9169L15.7384 6.90571ZM16.4044 3.88129L16.0479 3.69989L16.0479 3.69991L16.4044 3.88129ZM18.3653 1.74262L18.1616 1.39837L18.1616 1.39838L18.3653 1.74262ZM17.336 20.8237L17.7276 20.7419L17.7276 20.7419L17.336 20.8237ZM11.3663 14.518L11.2454 14.1367L11.2454 14.1367L11.3663 14.518ZM8.60849 23.5903L8.21694 23.6721L8.21694 23.6721L8.60849 23.5903ZM14.5792 29.8959L14.7001 30.2772L14.7001 30.2772L14.5792 29.8959ZM28.6339 14.518L28.7548 14.1367L28.7548 14.1367L28.6339 14.518ZM22.6642 20.8227L22.2726 20.7409L22.2726 20.7409L22.6642 20.8227ZM25.422 29.895L25.3011 30.2763L25.3012 30.2763L25.422 29.895ZM31.3917 23.5903L31.7832 23.6721L31.7832 23.6721L31.3917 23.5903ZM21.0079 1.15668L20.9643 1.5543C21.1253 1.57195 21.3418 1.64381 21.6043 1.77281C21.8618 1.8994 22.1406 2.06941 22.421 2.26115C22.9818 2.64466 23.5239 3.09793 23.877 3.41584L24.1446 3.1186L24.4123 2.82135C24.0424 2.48831 23.4717 2.01055 22.8726 1.60081C22.573 1.39593 22.2601 1.20375 21.9571 1.05483C21.659 0.908319 21.346 0.79135 21.0515 0.759064L21.0079 1.15668ZM24.1446 3.1186L23.8014 2.91317L23.1666 3.97372L23.5099 4.17914L23.8531 4.38457L24.4878 3.32402L24.1446 3.1186ZM23.5099 4.17914L23.7775 3.8819C23.49 3.623 22.9746 3.25471 22.4523 2.94335C22.1891 2.78644 21.9162 2.63916 21.6615 2.5251C21.4147 2.41454 21.1548 2.32123 20.9266 2.29618L20.8829 2.69379L20.8393 3.0914C20.9408 3.10255 21.1087 3.15411 21.3345 3.25522C21.5525 3.35283 21.7969 3.48401 22.0426 3.6305C22.5382 3.92591 23.0064 4.2641 23.2422 4.47639L23.5099 4.17914ZM20.8829 2.69379L20.9265 2.29617C20.1776 2.2141 19.4277 2.38284 18.7661 2.77436L18.9698 3.1186L19.1735 3.46283C19.6921 3.15595 20.2693 3.02894 20.8393 3.09141L20.8829 2.69379ZM18.9698 3.1186L18.7661 2.77436C18.1053 3.16545 17.5626 3.7614 17.1944 4.48504L17.5509 4.66645L17.9074 4.84785C18.2127 4.24788 18.6543 3.77014 19.1735 3.46283L18.9698 3.1186ZM17.5509 4.66645L17.1944 4.48506C16.8264 5.20831 16.6443 6.03433 16.6676 6.86708L17.0675 6.8559L17.4673 6.84472C17.4476 6.14125 17.6019 5.44817 17.9074 4.84784L17.5509 4.66645ZM17.0675 6.8559L16.6676 6.86712C16.691 7.69967 16.9185 8.51134 17.3271 9.20693L17.672 9.00434L18.0169 8.80175C17.6795 8.22734 17.4871 7.54823 17.4673 6.84469L17.0675 6.8559ZM17.672 9.00434L17.3271 9.20695C17.736 9.90302 18.313 10.4582 18.9961 10.7996L19.1749 10.4418L19.3537 10.084C18.8203 9.81739 18.354 9.37561 18.0169 8.80172L17.672 9.00434ZM19.1749 10.4418L18.9961 10.7997C19.6803 11.1416 20.439 11.2524 21.1807 11.1144L21.1075 10.7211L21.0343 10.3279C20.4682 10.4333 19.886 10.35 19.3537 10.084L19.1749 10.4418ZM21.1075 10.7211L21.1808 11.1144C21.6115 11.0341 22.0687 10.7338 22.4442 10.438C22.835 10.1301 23.2002 9.77532 23.4538 9.51474L23.1671 9.23578L22.8804 8.95683C22.6382 9.20577 22.3006 9.53267 21.9491 9.8096C21.5822 10.0986 21.2576 10.2863 21.0342 10.3279L21.1075 10.7211ZM23.1671 9.23578L22.9485 9.5708L23.9261 10.2085L24.1446 9.87348L24.3632 9.53846L23.3856 8.90077L23.1671 9.23578ZM24.1446 9.87348L23.8579 9.59453C23.4898 9.97287 23.0423 10.4898 22.5376 10.9706C22.2912 11.2054 22.0473 11.415 21.8175 11.5736C21.5828 11.7358 21.3905 11.8252 21.2451 11.8523L21.3185 12.2455L21.3918 12.6388C21.6982 12.5816 21.9994 12.4203 22.2722 12.2319C22.5501 12.04 22.8278 11.799 23.0894 11.5498C23.6007 11.0627 24.1146 10.4779 24.4313 10.1524L24.1446 9.87348ZM21.3185 12.2455L21.2453 11.8523C21.1394 11.872 21.0303 11.8863 20.9184 11.8972L20.9571 12.2954L20.9959 12.6935C21.1248 12.6809 21.2577 12.6637 21.3916 12.6388L21.3185 12.2455ZM20.9571 12.2954H20.5571V13.9379H20.9571H21.3571V12.2954H20.9571ZM20.9571 13.9379L21.2989 14.1457C22.4214 12.2991 23.7331 10.913 25.0869 10.105C26.4351 9.30048 27.8106 9.0752 29.1077 9.50871L29.2345 9.12934L29.3613 8.74997C27.7969 8.22711 26.1793 8.52153 24.677 9.41806C23.1803 10.3112 21.784 11.8075 20.6153 13.7302L20.9571 13.9379ZM29.2345 9.12934L29.1076 9.5087C31.0785 10.1677 32.6191 12.2718 33.4454 15.2943C34.2667 18.2988 34.352 22.1203 33.4893 26.0374L33.88 26.1235L34.2706 26.2095C35.1572 22.1837 35.0771 18.2295 34.2171 15.0833C33.3619 11.9551 31.7052 9.53366 29.3613 8.74998L29.2345 9.12934ZM33.88 26.1235L33.4893 26.0374C32.6262 29.9561 30.9868 33.1891 29.0593 35.2552C27.1256 37.328 24.973 38.1651 23.0263 37.5146L22.8995 37.894L22.7727 38.2734C25.1409 39.0648 27.6038 37.9882 29.6443 35.8009C31.691 33.607 33.3843 30.2337 34.2706 26.2095L33.88 26.1235ZM22.8995 37.894L23.0263 37.5146C21.9951 37.1699 21.0837 36.4312 20.3252 35.3635L19.9991 35.5952L19.673 35.8268C20.5043 36.9971 21.5436 37.8625 22.7727 38.2734L22.8995 37.894ZM19.9991 35.5952L19.673 35.3635C18.9144 36.4315 18.0046 37.171 16.9739 37.5156L17.1007 37.895L17.2275 38.2743C18.4568 37.8634 19.4943 36.9965 20.3252 35.8268L19.9991 35.5952ZM17.1007 37.895L16.9739 37.5156C15.0272 38.1662 12.8746 37.329 10.9409 35.2562C9.01347 33.19 7.374 29.9571 6.51085 26.0384L6.12021 26.1245L5.72957 26.2105C6.61596 30.2346 8.3093 33.608 10.356 35.8019C12.3964 37.9892 14.8593 39.0659 17.2275 38.2743L17.1007 37.895ZM6.12021 26.1245L6.51085 26.0384C5.64813 22.1213 5.73323 18.2999 6.55437 15.2954C7.38041 12.273 8.92082 10.1688 10.8916 9.50966L10.7647 9.13031L10.6379 8.75097C8.29413 9.53484 6.6376 11.9563 5.78267 15.0845C4.92284 18.2306 4.84293 22.1848 5.72957 26.2105L6.12021 26.1245ZM10.7647 9.13031L10.8916 9.50968C12.1889 9.076 13.5646 9.30152 14.9129 10.1066C16.2669 10.9151 17.5787 12.302 18.7012 14.1495L19.0431 13.9418L19.3849 13.7341C18.2161 11.8106 16.8198 10.3134 15.323 9.41972C13.8205 8.5226 12.2027 8.22788 10.6379 8.75095L10.7647 9.13031ZM19.0431 13.9418H19.4431V12.0317H19.0431H18.6431V13.9418H19.0431ZM19.0431 12.0317L19.1863 11.6582C19.0612 11.6102 18.941 11.5593 18.8264 11.502L18.6476 11.8598L18.4687 12.2176C18.6131 12.2898 18.7586 12.351 18.8998 12.4052L19.0431 12.0317ZM18.6476 11.8598L18.8264 11.502C18.0612 11.1194 17.3967 10.4872 16.9173 9.67089L16.5724 9.87348L16.2275 10.0761C16.7785 11.0141 17.5535 11.76 18.4687 12.2176L18.6476 11.8598ZM16.5724 9.87348L16.9173 9.6709C16.4377 8.8544 16.1661 7.89134 16.1382 6.89451L15.7384 6.90571L15.3385 6.9169C15.37 8.04226 15.6765 9.13798 16.2275 10.0761L16.5724 9.87348ZM15.7384 6.90571L16.1382 6.89452C16.1103 5.89765 16.3272 4.91503 16.7609 4.06267L16.4044 3.88129L16.0479 3.69991C15.5513 4.67595 15.3071 5.79163 15.3385 6.91689L15.7384 6.90571ZM16.4044 3.88129L16.7609 4.0627C17.1946 3.21033 17.8246 2.5274 18.569 2.08686L18.3653 1.74262L18.1616 1.39838C17.2758 1.92263 16.5446 2.72372 16.0479 3.69989L16.4044 3.88129ZM18.3653 1.74262L18.569 2.08687C19.3124 1.647 20.1426 1.46424 20.9643 1.5543L21.0079 1.15668L21.0515 0.759063C20.0514 0.649458 19.0484 0.873646 18.1616 1.39837L18.3653 1.74262ZM17.336 20.8237L17.7276 20.7419C17.2724 18.5631 16.3547 16.7231 15.2128 15.5169C14.0747 14.3148 12.6527 13.6905 11.2454 14.1367L11.3663 14.518L11.4872 14.8993C12.4899 14.5814 13.6093 14.9868 14.6318 16.0669C15.6505 17.1429 16.5125 18.8378 16.9445 20.9055L17.336 20.8237ZM11.3663 14.518L11.2454 14.1367C9.85939 14.5763 8.885 15.9328 8.36842 17.6321C7.84739 19.3461 7.76159 21.4919 8.21694 23.6721L8.60849 23.5903L9.00004 23.5085C8.56853 21.4425 8.65671 19.4343 9.13383 17.8648C9.6154 16.2806 10.4634 15.224 11.4872 14.8993L11.3663 14.518ZM8.60849 23.5903L8.21694 23.6721C8.67211 25.8508 9.59011 27.6907 10.7323 28.8969C11.8706 30.099 13.2928 30.7233 14.7001 30.2772L14.5792 29.8959L14.4583 29.5146C13.4556 29.8325 12.336 29.427 11.3132 28.3469C10.2943 27.2709 9.43197 25.576 9.00004 23.5085L8.60849 23.5903ZM14.5792 29.8959L14.7001 30.2772C16.0861 29.8376 17.0603 28.4811 17.5766 26.7817C18.0974 25.0678 18.183 22.922 17.7276 20.7419L17.336 20.8237L16.9445 20.9055C17.376 22.9715 17.2881 24.9796 16.8112 26.5492C16.3298 28.1333 15.4821 29.1899 14.4583 29.5147L14.5792 29.8959ZM28.6339 14.518L28.7548 14.1367C27.3475 13.6906 25.9256 14.3146 24.7875 15.5165C23.6456 16.7226 22.7278 18.5623 22.2726 20.7409L22.6642 20.8227L23.0557 20.9045C23.4877 18.8371 24.3498 17.1424 25.3684 16.0666C26.391 14.9867 27.5103 14.5814 28.513 14.8993L28.6339 14.518ZM22.6642 20.8227L22.2726 20.7409C21.8172 22.9211 21.9029 25.067 22.424 26.781C22.9406 28.4803 23.915 29.8368 25.3011 30.2763L25.422 29.895L25.5429 29.5137C24.5189 29.189 23.6709 28.1324 23.1894 26.5483C22.7123 24.9788 22.6241 22.9706 23.0557 20.9045L22.6642 20.8227ZM25.422 29.895L25.3012 30.2763C26.7083 30.7221 28.1302 30.098 29.2683 28.8962C30.4103 27.6902 31.3281 25.8506 31.7832 23.6721L31.3917 23.5903L31.0001 23.5085C30.5682 25.5758 29.7061 27.2704 28.6874 28.3461C27.6649 29.426 26.5455 29.8313 25.5428 29.5136L25.422 29.895ZM31.3917 23.5903L31.7832 23.6721C32.2386 21.492 32.1528 19.3462 31.6318 17.6322C31.1152 15.9328 30.1408 14.5764 28.7548 14.1367L28.6339 14.518L28.5129 14.8993C29.5368 15.2241 30.3848 16.2807 30.8663 17.8649C31.3435 19.4344 31.4317 21.4425 31.0001 23.5085L31.3917 23.5903Z" fill="white" mask="url(#path-1-inside-1_32_36)"/>
<mask id="path-3-inside-2_32_36" fill="white">
<path d="M22.6182 5.76746H24.1768V6.95789H22.6182V9.24988H21.1094V6.95789H19.4619V5.76746H21.1094V4.66687H22.6182V5.76746Z"/>
</mask>
<path d="M22.6182 5.76746H24.1768V6.95789H22.6182V9.24988H21.1094V6.95789H19.4619V5.76746H21.1094V4.66687H22.6182V5.76746Z" fill="black"/>
<path d="M22.6182 5.76746H22.4182V5.96746H22.6182V5.76746ZM24.1768 5.76746H24.3768V5.56746H24.1768V5.76746ZM24.1768 6.95789V7.15789H24.3768V6.95789H24.1768ZM22.6182 6.95789V6.75789H22.4182V6.95789H22.6182ZM22.6182 9.24988V9.44988H22.8182V9.24988H22.6182ZM21.1094 9.24988H20.9094V9.44988H21.1094V9.24988ZM21.1094 6.95789H21.3094V6.75789H21.1094V6.95789ZM19.4619 6.95789H19.2619V7.15789H19.4619V6.95789ZM19.4619 5.76746V5.56746H19.2619V5.76746H19.4619ZM21.1094 5.76746V5.96746H21.3094V5.76746H21.1094ZM21.1094 4.66687V4.46687H20.9094V4.66687H21.1094ZM22.6182 4.66687H22.8182V4.46687H22.6182V4.66687ZM22.6182 5.76746V5.96746H24.1768V5.76746V5.56746H22.6182V5.76746ZM24.1768 5.76746H23.9768V6.95789H24.1768H24.3768V5.76746H24.1768ZM24.1768 6.95789V6.75789H22.6182V6.95789V7.15789H24.1768V6.95789ZM22.6182 6.95789H22.4182V9.24988H22.6182H22.8182V6.95789H22.6182ZM22.6182 9.24988V9.04988H21.1094V9.24988V9.44988H22.6182V9.24988ZM21.1094 9.24988H21.3094V6.95789H21.1094H20.9094V9.24988H21.1094ZM21.1094 6.95789V6.75789H19.4619V6.95789V7.15789H21.1094V6.95789ZM19.4619 6.95789H19.6619V5.76746H19.4619H19.2619V6.95789H19.4619ZM19.4619 5.76746V5.96746H21.1094V5.76746V5.56746H19.4619V5.76746ZM21.1094 5.76746H21.3094V4.66687H21.1094H20.9094V5.76746H21.1094ZM21.1094 4.66687V4.86687H22.6182V4.66687V4.46687H21.1094V4.66687ZM22.6182 4.66687H22.4182V5.76746H22.6182H22.8182V4.66687H22.6182Z" fill="white" mask="url(#path-3-inside-2_32_36)"/>
<rect x="8.1436" y="34.8764" width="24.6" height="3.05627" fill="black" stroke="white" stroke-width="0.4"/>
</svg>
