<svg width="40" height="40" viewBox="0 0 40 40" fill="none" xmlns="http://www.w3.org/2000/svg">
<rect x="12.15" y="30.15" width="17.7" height="0.7" fill="black" stroke="white" stroke-width="0.3"/>
<path d="M14.5 30C18 26 21.5 23 17.5 20.5C13.7534 18.1584 13 17 13.5 17.5C11.1667 15.1667 14.3857 9.5 20 9.5C27 9.5 28 13 26.5 16C24.9 19.2 26.1667 27 27.5 30H14.5Z" fill="black" stroke="white" stroke-width="0.3"/>
<path d="M13 15.5L10 17.5H14L13 15.5Z" fill="#FF8205"/>
<circle cx="15" cy="14" r="1" fill="white"/>
<path d="M23.1222 25.1272L24.8712 27.9892C24.3589 27.8655 22.3802 28.2012 20.3874 28.3708C18.3552 28.5438 19.3345 27.7913 20.8008 27.332C20.8745 27.3089 21.4898 27.173 20.2602 26.8762C19.0306 26.5794 21.4898 25.6007 23.1222 25.1272Z" stroke="white" stroke-width="0.1"/>
</svg>
