<svg width="40" height="40" viewBox="0 0 40 40" fill="none" xmlns="http://www.w3.org/2000/svg">
<path d="M10 32.3496H31C31.359 32.3496 31.6504 32.641 31.6504 33V38.6504H9.34961V33C9.34961 32.641 9.64101 32.3496 10 32.3496Z" fill="white" stroke="black" stroke-width="0.7"/>
<mask id="path-2-inside-1_15_25" fill="white">
<path d="M20.5 7C23.2141 7.00001 25.7069 8.02421 27.6738 9.7334C26.8174 10.2257 25.8992 10.8319 24.9756 11.5322C21.6757 14.0346 19.5414 16.7767 20.208 17.6572C20.8754 18.5373 24.0922 17.2223 27.3926 14.7197C28.3819 13.9695 29.2652 13.1957 30.001 12.459C31.2613 14.4643 31.9999 16.8881 32 19.5C32 26.4035 26.8513 32 20.5 32C14.1487 32 9 26.4036 9 19.5C9.00015 12.5966 13.0001 7 20.5 7Z"/>
</mask>
<path d="M20.5 7C23.2141 7.00001 25.7069 8.02421 27.6738 9.7334C26.8174 10.2257 25.8992 10.8319 24.9756 11.5322C21.6757 14.0346 19.5414 16.7767 20.208 17.6572C20.8754 18.5373 24.0922 17.2223 27.3926 14.7197C28.3819 13.9695 29.2652 13.1957 30.001 12.459C31.2613 14.4643 31.9999 16.8881 32 19.5C32 26.4035 26.8513 32 20.5 32C14.1487 32 9 26.4036 9 19.5C9.00015 12.5966 13.0001 7 20.5 7Z" fill="white"/>
<path d="M20.5 7L20.5 6.4H20.5V7ZM27.6738 9.7334L27.9729 10.2536L28.7037 9.83344L28.0674 9.2805L27.6738 9.7334ZM24.9756 11.5322L24.613 11.0541L24.613 11.0541L24.9756 11.5322ZM20.208 17.6572L19.7296 18.0194L19.7299 18.0198L20.208 17.6572ZM27.3926 14.7197L27.7551 15.1978L27.7551 15.1978L27.3926 14.7197ZM30.001 12.459L30.509 12.1397L30.1084 11.5024L29.5764 12.035L30.001 12.459ZM32 19.5L32.6 19.5L32.6 19.5L32 19.5ZM20.5 32L20.5 32.6L20.5 32.6L20.5 32ZM9 19.5L8.4 19.5V19.5H9ZM20.5 7L20.5 7.6C23.0585 7.60001 25.414 8.56454 27.2803 10.1863L27.6738 9.7334L28.0674 9.2805C25.9998 7.48388 23.3696 6.40001 20.5 6.4L20.5 7ZM27.6738 9.7334L27.3748 9.21322C26.4952 9.71883 25.5559 10.3392 24.613 11.0541L24.9756 11.5322L25.3381 12.0103C26.2425 11.3245 27.1396 10.7326 27.9729 10.2536L27.6738 9.7334ZM24.9756 11.5322L24.613 11.0541C22.9339 12.3275 21.534 13.6742 20.6309 14.8344C20.1822 15.4109 19.8342 15.9691 19.6461 16.4695C19.4704 16.9366 19.3674 17.5409 19.7296 18.0194L20.208 17.6572L20.6864 17.2951C20.7153 17.3333 20.6291 17.2646 20.7693 16.8918C20.897 16.5522 21.1639 16.1033 21.5779 15.5715C22.4002 14.5149 23.7174 13.2393 25.3381 12.0103L24.9756 11.5322ZM20.208 17.6572L19.7299 18.0198C20.0927 18.4981 20.7024 18.5622 21.1997 18.5192C21.7323 18.4732 22.3637 18.2889 23.04 18.0124C24.401 17.4559 26.0757 16.4713 27.7551 15.1978L27.3926 14.7197L27.03 14.2416C25.4091 15.4707 23.8252 16.3949 22.5859 16.9016C21.962 17.1567 21.4578 17.2925 21.0964 17.3237C20.6997 17.358 20.657 17.2564 20.6861 17.2947L20.208 17.6572ZM27.3926 14.7197L27.7551 15.1978C28.7651 14.4319 29.6693 13.6402 30.4255 12.883L30.001 12.459L29.5764 12.035C28.8612 12.7512 27.9988 13.507 27.03 14.2416L27.3926 14.7197ZM30.001 12.459L29.493 12.7783C30.6936 14.6887 31.3999 17.0019 31.4 19.5L32 19.5L32.6 19.5C32.5999 16.7743 31.829 14.24 30.509 12.1397L30.001 12.459ZM32 19.5H31.4C31.4 26.1203 26.4738 31.4 20.5 31.4L20.5 32L20.5 32.6C27.2287 32.6 32.6 26.6868 32.6 19.5H32ZM20.5 32V31.4C14.5262 31.4 9.6 26.1203 9.6 19.5H9H8.4C8.4 26.6868 13.7712 32.6 20.5 32.6V32ZM9 19.5L9.6 19.5C9.60007 16.1591 10.568 13.1826 12.3933 11.0515C14.2085 8.93224 16.9121 7.6 20.5 7.6V7V6.4C16.588 6.4 13.5417 7.86608 11.4819 10.2709C9.43221 12.664 8.40008 15.9375 8.4 19.5L9 19.5Z" fill="black" mask="url(#path-2-inside-1_15_25)"/>
<circle cx="13.5" cy="6.5" r="2.3" fill="white" stroke="black" stroke-width="0.4"/>
</svg>
