<svg width="40" height="40" viewBox="0 0 40 40" fill="none" xmlns="http://www.w3.org/2000/svg">
<g id="crocodile">
<g id="Frame 1">
<rect id="Rectangle 1" x="5" y="30" width="30" height="5" rx="2" fill="white"/>
<rect id="Rectangle 2" x="15" y="20" width="11" height="10" fill="white"/>
<g id="Rectangle 3" filter="url(#filter0_d_5_8)">
<rect x="6" y="6" width="29" height="14" rx="7" fill="white"/>
</g>
<path id="Rectangle 4" d="M23 4C23 2.89543 23.8954 2 25 2H26C27.1046 2 28 2.89543 28 4V6H23V4Z" fill="white"/>
<path id="Rectangle 5" d="M13 4C13 2.89543 13.8954 2 15 2H16C17.1046 2 18 2.89543 18 4V6H13V4Z" fill="white"/>
<path id="Rectangle 6" d="M24 4.5C24 3.67157 24.6716 3 25.5 3V3C26.3284 3 27 3.67157 27 4.5V7H24V4.5Z" fill="white"/>
<path id="Rectangle 7" d="M14 4.5C14 3.67157 14.6716 3 15.5 3V3C16.3284 3 17 3.67157 17 4.5V7H14V4.5Z" fill="white"/>
<rect id="Rectangle 8" x="15" y="4" width="1" height="2" fill="black"/>
<rect id="Rectangle 9" x="25" y="4" width="1" height="2" fill="black"/>
<rect id="Rectangle 10" x="16" y="18" width="9" height="1" fill="black"/>
<g id="Group 2">
<circle id="Ellipse 2" cx="14.5" cy="11.5" r="1.5" stroke="black" stroke-width="0.5"/>
<ellipse id="Ellipse 3" cx="14.4705" cy="11.5" rx="0.46761" ry="0.497266" transform="rotate(0.335985 14.4705 11.5)" fill="black"/>
</g>
<g id="Group 1">
<circle id="Ellipse 1" cx="24.5" cy="11.5" r="1.5" stroke="black" stroke-width="0.5"/>
<ellipse id="Ellipse 4" cx="24.4705" cy="11.5" rx="0.46761" ry="0.497266" transform="rotate(0.335985 24.4705 11.5)" fill="black"/>
</g>
</g>
</g>
<defs>
<filter id="filter0_d_5_8" x="5.5" y="6" width="30" height="15.5" filterUnits="userSpaceOnUse" color-interpolation-filters="sRGB">
<feFlood flood-opacity="0" result="BackgroundImageFix"/>
<feColorMatrix in="SourceAlpha" type="matrix" values="0 0 0 0 0 0 0 0 0 0 0 0 0 0 0 0 0 0 127 0" result="hardAlpha"/>
<feOffset dy="1"/>
<feGaussianBlur stdDeviation="0.25"/>
<feComposite in2="hardAlpha" operator="out"/>
<feColorMatrix type="matrix" values="0 0 0 0 0 0 0 0 0 0 0 0 0 0 0 0 0 0 0.19 0"/>
<feBlend mode="normal" in2="BackgroundImageFix" result="effect1_dropShadow_5_8"/>
<feBlend mode="normal" in="SourceGraphic" in2="effect1_dropShadow_5_8" result="shape"/>
</filter>
</defs>
</svg>
