<svg width="40" height="40" viewBox="0 0 40 40" fill="none" xmlns="http://www.w3.org/2000/svg">
<path d="M32.8964 20.1807C32.1387 19.7499 30.9124 19.9768 29.4136 21.066C27.9555 22.1258 26.4055 23.8943 25.1346 26.1293C23.8636 28.3644 23.1357 30.6013 22.9706 32.3964C22.8008 34.2413 23.2328 35.4113 23.9904 35.8421C24.748 36.273 25.9744 36.0459 27.4732 34.9568C28.9314 33.897 30.4817 32.1278 31.7527 29.8927C33.0236 27.6577 33.751 25.4215 33.9162 23.6264C34.086 21.7813 33.6541 20.6115 32.8964 20.1807Z" fill="white" stroke="black"/>
<path d="M8.27734 20.1807C9.03504 19.7499 10.2613 19.9768 11.7601 21.066C13.2182 22.1258 14.7682 23.8943 16.0391 26.1293C17.3101 28.3644 18.038 30.6013 18.2031 32.3964C18.3729 34.2413 17.9409 35.4113 17.1833 35.8421C16.4257 36.273 15.1993 36.0459 13.7005 34.9568C12.2423 33.897 10.6921 32.1278 9.42104 29.8927C8.15013 27.6577 7.42268 25.4215 7.25749 23.6264C7.08771 21.7813 7.51964 20.6115 8.27734 20.1807Z" fill="white" stroke="black"/>
<mask id="path-3-inside-1_26_36" fill="white">
<path d="M23.4984 7.85742C24.9171 7.85755 26.0841 8.8808 26.2504 10.2012C31.0833 12.2072 29.0258 17.2914 29.0258 23.3184C29.0258 31.0688 25.0762 37.3523 20.2045 37.3525C15.3326 37.3525 11.3832 31.069 11.3832 23.3184C11.3832 17.552 9.49898 12.5484 13.5687 10.4014C13.7084 9.05509 14.8918 8.00391 16.3304 8.00391C17.3453 8.00394 18.2304 8.52867 18.7142 9.30957C19.1831 9.29 19.6795 9.28129 20.2045 9.28516C20.4889 9.28725 20.7649 9.29213 21.0326 9.30078C21.4942 8.44356 22.4248 7.85742 23.4984 7.85742Z"/>
</mask>
<path d="M23.4984 7.85742C24.9171 7.85755 26.0841 8.8808 26.2504 10.2012C31.0833 12.2072 29.0258 17.2914 29.0258 23.3184C29.0258 31.0688 25.0762 37.3523 20.2045 37.3525C15.3326 37.3525 11.3832 31.069 11.3832 23.3184C11.3832 17.552 9.49898 12.5484 13.5687 10.4014C13.7084 9.05509 14.8918 8.00391 16.3304 8.00391C17.3453 8.00394 18.2304 8.52867 18.7142 9.30957C19.1831 9.29 19.6795 9.28129 20.2045 9.28516C20.4889 9.28725 20.7649 9.29213 21.0326 9.30078C21.4942 8.44356 22.4248 7.85742 23.4984 7.85742Z" fill="white"/>
<path d="M23.4984 7.85742L23.4985 7.15742H23.4984V7.85742ZM26.2504 10.2012L25.5558 10.2886L25.6066 10.6919L25.982 10.8477L26.2504 10.2012ZM29.0258 23.3184L28.3258 23.3184V23.3184H29.0258ZM20.2045 37.3525V38.0525H20.2045L20.2045 37.3525ZM11.3832 23.3184H12.0832L12.0832 23.3184L11.3832 23.3184ZM13.5687 10.4014L13.8954 11.0205L14.2264 10.8459L14.265 10.4736L13.5687 10.4014ZM16.3304 8.00391L16.3305 7.30391H16.3304V8.00391ZM18.7142 9.30957L18.1192 9.67826L18.3347 10.026L18.7434 10.009L18.7142 9.30957ZM20.2045 9.28516L20.2096 8.58518H20.2096L20.2045 9.28516ZM21.0326 9.30078L21.01 10.0004L21.4433 10.0144L21.6489 9.63267L21.0326 9.30078ZM23.4984 7.85742L23.4984 8.55742C24.5806 8.55752 25.4357 9.33422 25.5558 10.2886L26.2504 10.2012L26.9449 10.1137C26.7326 8.42737 25.2536 7.15758 23.4985 7.15742L23.4984 7.85742ZM26.2504 10.2012L25.982 10.8477C27.0676 11.2983 27.7155 11.8965 28.1149 12.5964C28.5235 13.3124 28.7083 14.1979 28.751 15.2795C28.7938 16.3649 28.6926 17.5825 28.5743 18.9479C28.4574 20.2981 28.3258 21.7762 28.3258 23.3184L29.0258 23.3184L29.7258 23.3184C29.7258 21.847 29.8513 20.4295 29.9691 19.0687C30.0857 17.723 30.1968 16.4141 30.1499 15.2243C30.1028 14.0307 29.8958 12.8924 29.3309 11.9025C28.7568 10.8967 27.8495 10.107 26.5187 9.55465L26.2504 10.2012ZM29.0258 23.3184H28.3258C28.3258 27.0826 27.3652 30.4576 25.8493 32.8692C24.3276 35.2903 22.3138 36.6524 20.2044 36.6525L20.2045 37.3525L20.2045 38.0525C22.9669 38.0524 25.3637 36.2726 27.0346 33.6143C28.7115 30.9466 29.7258 27.3045 29.7258 23.3184H29.0258ZM20.2045 37.3525V36.6525C18.0951 36.6525 16.0813 35.2905 14.5595 32.8694C13.0437 30.4577 12.0832 27.0827 12.0832 23.3184H11.3832H10.6832C10.6832 27.3046 11.6974 30.9467 13.3742 33.6144C15.0452 36.2728 17.442 38.0525 20.2045 38.0525V37.3525ZM11.3832 23.3184L12.0832 23.3184C12.0832 21.8425 11.9626 20.42 11.8498 19.1093C11.7358 17.7853 11.6316 16.5911 11.6497 15.5144C11.6678 14.4395 11.8083 13.5426 12.1464 12.8068C12.4757 12.09 13.01 11.4876 13.8954 11.0205L13.5687 10.4014L13.2421 9.78224C12.0926 10.3887 11.3362 11.2168 10.8742 12.2223C10.421 13.2088 10.2695 14.3258 10.2499 15.4909C10.2303 16.6543 10.3428 17.9264 10.4549 19.2294C10.5682 20.5457 10.6832 21.9111 10.6832 23.3184L11.3832 23.3184ZM13.5687 10.4014L14.265 10.4736C14.3657 9.50308 15.231 8.70391 16.3304 8.70391V8.00391V7.30391C14.5527 7.30391 13.0511 8.6071 12.8725 10.3291L13.5687 10.4014ZM16.3304 8.00391L16.3304 8.70391C17.1004 8.70393 17.7616 9.10116 18.1192 9.67826L18.7142 9.30957L19.3093 8.94088C18.6991 7.95618 17.5902 7.30395 16.3305 7.30391L16.3304 8.00391ZM18.7142 9.30957L18.7434 10.009C19.2004 9.98989 19.6853 9.98135 20.1993 9.98514L20.2045 9.28516L20.2096 8.58518C19.6737 8.58123 19.1658 8.59012 18.685 8.61018L18.7142 9.30957ZM20.2045 9.28516L20.1993 9.98514C20.4791 9.9872 20.7492 9.99199 21.01 10.0004L21.0326 9.30078L21.0552 8.60115C20.7805 8.59228 20.4986 8.58731 20.2096 8.58518L20.2045 9.28516ZM21.0326 9.30078L21.6489 9.63267C21.9885 9.00198 22.6825 8.55742 23.4984 8.55742V7.85742V7.15742C22.1671 7.15742 20.9999 7.88513 20.4163 8.9689L21.0326 9.30078Z" fill="black" mask="url(#path-3-inside-1_26_36)"/>
<circle cx="23.5764" cy="10.3844" r="0.673706" fill="black"/>
<circle cx="16.1882" cy="10.3844" r="0.673706" fill="black"/>
<rect x="5.29143" y="35.5923" width="29.8255" height="2.09972" fill="white" stroke="black" stroke-width="0.4"/>
<path d="M26.1306 16.5193L20.4799 18.8962L14.3359 16.5193" stroke="black" stroke-width="0.4"/>
<path d="M20.7319 14.7654C20.7319 14.6968 20.7184 14.6289 20.6922 14.5655C20.6659 14.5021 20.6275 14.4446 20.579 14.3961C20.5305 14.3476 20.4729 14.3091 20.4096 14.2829C20.3462 14.2566 20.2783 14.2431 20.2097 14.2431C20.1411 14.2431 20.0732 14.2566 20.0099 14.2829C19.9465 14.3091 19.8889 14.3476 19.8405 14.3961C19.792 14.4446 19.7535 14.5021 19.7273 14.5655C19.701 14.6289 19.6875 14.6968 19.6875 14.7654L20.2097 14.7654H20.7319Z" fill="black"/>
</svg>
