<svg width="40" height="40" viewBox="0 0 40 40" fill="none" xmlns="http://www.w3.org/2000/svg">
<mask id="path-1-inside-1_30_10" fill="white">
<path d="M21.0079 0.878867C21.9189 0.978714 23.4217 2.18982 24.1446 2.84078L23.5098 3.90133C22.9866 3.43016 21.5424 2.48942 20.8829 2.41695C20.2235 2.34471 19.5598 2.4916 18.9698 2.84078C18.3798 3.18999 17.8876 3.72687 17.5508 4.38863C17.2142 5.05041 17.046 5.80999 17.0674 6.57809C17.089 7.34614 17.299 8.09152 17.6719 8.72652C18.045 9.36153 18.5666 9.85998 19.1749 10.164C19.7831 10.468 20.4536 10.565 21.1075 10.4433C21.7614 10.3214 22.6712 9.46751 23.1671 8.95797L24.1446 9.59566C23.4597 10.2996 22.2218 11.7991 21.3184 11.9677C21.1986 11.99 21.0775 12.0058 20.9571 12.0175V13.6601C23.2483 9.89087 26.3731 7.89518 29.2344 8.85152C33.5492 10.2941 35.6291 17.9027 33.8799 25.8457C32.1305 33.7885 27.2143 39.059 22.8995 37.6171C21.7691 37.2393 20.794 36.4367 19.9991 35.3173C19.2043 36.4362 18.2307 37.2394 17.1007 37.6171C12.7858 39.0593 7.8697 33.7895 6.12018 25.8466C4.3708 17.9035 6.45085 10.2951 10.7657 8.8525C13.6277 7.89595 16.752 9.89314 19.043 13.664V11.7539C18.9099 11.7028 18.777 11.6467 18.6475 11.582C17.8074 11.1619 17.0875 10.4728 16.5723 9.59566C16.0571 8.71842 15.7681 7.68891 15.7383 6.62789C15.7087 5.56688 15.9393 4.51764 16.4044 3.60348C16.8696 2.68926 17.5502 1.94721 18.3653 1.4648C19.1803 0.982545 20.097 0.779068 21.0079 0.878867ZM17.337 20.5459C16.4499 16.2995 13.7763 13.476 11.3663 14.2402C8.95641 15.0046 7.72145 19.0672 8.60846 23.3134C9.49563 27.5594 12.1692 30.382 14.5792 29.6181C16.989 28.8537 18.2239 24.792 17.337 20.5459ZM28.6339 14.2402C26.2239 13.4762 23.5514 16.299 22.6641 20.5449C21.7772 24.7912 23.0119 28.854 25.4219 29.6181C27.8318 30.3815 30.5046 27.5583 31.3917 23.3125C32.2785 19.0663 31.0437 15.0045 28.6339 14.2402Z"/>
</mask>
<path d="M21.0079 0.878867C21.9189 0.978714 23.4217 2.18982 24.1446 2.84078L23.5098 3.90133C22.9866 3.43016 21.5424 2.48942 20.8829 2.41695C20.2235 2.34471 19.5598 2.4916 18.9698 2.84078C18.3798 3.18999 17.8876 3.72687 17.5508 4.38863C17.2142 5.05041 17.046 5.80999 17.0674 6.57809C17.089 7.34614 17.299 8.09152 17.6719 8.72652C18.045 9.36153 18.5666 9.85998 19.1749 10.164C19.7831 10.468 20.4536 10.565 21.1075 10.4433C21.7614 10.3214 22.6712 9.46751 23.1671 8.95797L24.1446 9.59566C23.4597 10.2996 22.2218 11.7991 21.3184 11.9677C21.1986 11.99 21.0775 12.0058 20.9571 12.0175V13.6601C23.2483 9.89087 26.3731 7.89518 29.2344 8.85152C33.5492 10.2941 35.6291 17.9027 33.8799 25.8457C32.1305 33.7885 27.2143 39.059 22.8995 37.6171C21.7691 37.2393 20.794 36.4367 19.9991 35.3173C19.2043 36.4362 18.2307 37.2394 17.1007 37.6171C12.7858 39.0593 7.8697 33.7895 6.12018 25.8466C4.3708 17.9035 6.45085 10.2951 10.7657 8.8525C13.6277 7.89595 16.752 9.89314 19.043 13.664V11.7539C18.9099 11.7028 18.777 11.6467 18.6475 11.582C17.8074 11.1619 17.0875 10.4728 16.5723 9.59566C16.0571 8.71842 15.7681 7.68891 15.7383 6.62789C15.7087 5.56688 15.9393 4.51764 16.4044 3.60348C16.8696 2.68926 17.5502 1.94721 18.3653 1.4648C19.1803 0.982545 20.097 0.779068 21.0079 0.878867ZM17.337 20.5459C16.4499 16.2995 13.7763 13.476 11.3663 14.2402C8.95641 15.0046 7.72145 19.0672 8.60846 23.3134C9.49563 27.5594 12.1692 30.382 14.5792 29.6181C16.989 28.8537 18.2239 24.792 17.337 20.5459ZM28.6339 14.2402C26.2239 13.4762 23.5514 16.299 22.6641 20.5449C21.7772 24.7912 23.0119 28.854 25.4219 29.6181C27.8318 30.3815 30.5046 27.5583 31.3917 23.3125C32.2785 19.0663 31.0437 15.0045 28.6339 14.2402Z" fill="white"/>
<path d="M21.0079 0.878867L21.0515 0.481248L21.0514 0.481246L21.0079 0.878867ZM24.1446 2.84078L24.4878 3.04621L24.6569 2.76379L24.4123 2.54354L24.1446 2.84078ZM23.5098 3.90133L23.2422 4.19857L23.6034 4.52387L23.853 4.10675L23.5098 3.90133ZM20.8829 2.41695L20.9266 2.01935L20.9264 2.01933L20.8829 2.41695ZM18.9698 2.84078L18.7661 2.49654L18.766 2.49656L18.9698 2.84078ZM17.5508 4.38863L17.1943 4.20723L17.1943 4.20725L17.5508 4.38863ZM17.0674 6.57809L16.6676 6.58927L16.6676 6.5893L17.0674 6.57809ZM17.6719 8.72652L17.327 8.92911L17.327 8.92913L17.6719 8.72652ZM19.1749 10.164L18.996 10.5218L18.9961 10.5218L19.1749 10.164ZM21.1075 10.4433L21.1807 10.8366L21.1808 10.8365L21.1075 10.4433ZM23.1671 8.95797L23.3856 8.62295L23.1099 8.44311L22.8804 8.67901L23.1671 8.95797ZM24.1446 9.59566L24.4313 9.87461L24.7703 9.52622L24.3631 9.26065L24.1446 9.59566ZM21.3184 11.9677L21.3916 12.361L21.3918 12.3609L21.3184 11.9677ZM20.9571 12.0175L20.9184 11.6194L20.5571 11.6546V12.0175H20.9571ZM20.9571 13.6601H20.5571V15.0882L21.2989 13.8679L20.9571 13.6601ZM29.2344 8.85152L29.3613 8.47216L29.3612 8.47215L29.2344 8.85152ZM33.8799 25.8457L34.2706 25.9317L34.2706 25.9317L33.8799 25.8457ZM22.8995 37.6171L22.7727 37.9965L22.7727 37.9965L22.8995 37.6171ZM19.9991 35.3173L20.3252 35.0857L19.9991 34.6266L19.673 35.0857L19.9991 35.3173ZM17.1007 37.6171L17.2274 37.9965L17.2275 37.9965L17.1007 37.6171ZM6.12018 25.8466L5.72954 25.9327L5.72955 25.9327L6.12018 25.8466ZM10.7657 8.8525L10.6389 8.47313L10.6389 8.47314L10.7657 8.8525ZM19.043 13.664L18.7012 13.8717L19.443 15.0928V13.664H19.043ZM19.043 11.7539H19.443V11.4789L19.1863 11.3804L19.043 11.7539ZM18.6475 11.582L18.4686 11.9398L18.4687 11.9398L18.6475 11.582ZM16.5723 9.59566L16.2274 9.79823L16.2274 9.79826L16.5723 9.59566ZM15.7383 6.62789L15.3385 6.63907L15.3385 6.63909L15.7383 6.62789ZM16.4044 3.60348L16.0479 3.42207L16.0478 3.4221L16.4044 3.60348ZM18.3653 1.4648L18.1616 1.12055L18.1616 1.12058L18.3653 1.4648ZM17.337 20.5459L17.7285 20.4641L17.7285 20.4641L17.337 20.5459ZM11.3663 14.2402L11.2454 13.8589L11.2453 13.8589L11.3663 14.2402ZM8.60846 23.3134L8.21691 23.3952L8.21692 23.3952L8.60846 23.3134ZM14.5792 29.6181L14.7 29.9994L14.7001 29.9994L14.5792 29.6181ZM28.6339 14.2402L28.7548 13.8589L28.7547 13.8589L28.6339 14.2402ZM22.6641 20.5449L22.2726 20.4631L22.2726 20.4631L22.6641 20.5449ZM25.4219 29.6181L25.301 29.9994L25.3011 29.9995L25.4219 29.6181ZM31.3917 23.3125L31.7832 23.3943L31.7832 23.3942L31.3917 23.3125ZM21.0079 0.878867L20.9643 1.27649C21.1253 1.29413 21.3418 1.36599 21.6042 1.49499C21.8618 1.62158 22.1406 1.79158 22.421 1.98332C22.9817 2.36683 23.5239 2.82011 23.8769 3.13802L24.1446 2.84078L24.4123 2.54354C24.0424 2.21049 23.4717 1.73273 22.8726 1.32298C22.573 1.1181 22.2601 0.925922 21.9571 0.777008C21.659 0.630496 21.346 0.513529 21.0515 0.481248L21.0079 0.878867ZM24.1446 2.84078L23.8014 2.63535L23.1666 3.6959L23.5098 3.90133L23.853 4.10675L24.4878 3.04621L24.1446 2.84078ZM23.5098 3.90133L23.7775 3.60409C23.4899 3.34513 22.9744 2.97708 22.4522 2.66598C22.189 2.5092 21.9161 2.36205 21.6614 2.24809C21.4145 2.13762 21.1547 2.04441 20.9266 2.01935L20.8829 2.41695L20.8392 2.81456C20.9408 2.82573 21.1089 2.87728 21.3346 2.97831C21.5526 3.07585 21.7971 3.20691 22.0428 3.35328C22.5383 3.64845 23.0065 3.98636 23.2422 4.19857L23.5098 3.90133ZM20.8829 2.41695L20.9264 2.01933C20.178 1.93734 19.428 2.10483 18.7661 2.49654L18.9698 2.84078L19.1735 3.18502C19.6917 2.87837 20.2689 2.75208 20.8393 2.81457L20.8829 2.41695ZM18.9698 2.84078L18.766 2.49656C18.1053 2.88764 17.5626 3.48362 17.1943 4.20723L17.5508 4.38863L17.9073 4.57004C18.2126 3.97012 18.6543 3.49233 19.1735 3.185L18.9698 2.84078ZM17.5508 4.38863L17.1943 4.20725C16.8264 4.93048 16.6443 5.75653 16.6676 6.58927L17.0674 6.57809L17.4673 6.5669C17.4476 5.86346 17.6019 5.17034 17.9074 4.57001L17.5508 4.38863ZM17.0674 6.57809L16.6676 6.5893C16.691 7.42186 16.9185 8.23351 17.327 8.92911L17.6719 8.72652L18.0168 8.52393C17.6794 7.94952 17.487 7.27042 17.4673 6.56687L17.0674 6.57809ZM17.6719 8.72652L17.327 8.92913C17.736 9.62525 18.313 10.1804 18.996 10.5218L19.1749 10.164L19.3537 9.80623C18.8202 9.53956 18.354 9.09782 18.0168 8.52392L17.6719 8.72652ZM19.1749 10.164L18.9961 10.5218C19.6803 10.8638 20.4391 10.9746 21.1807 10.8366L21.1075 10.4433L21.0343 10.0501C20.4681 10.1554 19.8859 10.0722 19.3537 9.80622L19.1749 10.164ZM21.1075 10.4433L21.1808 10.8365C21.6114 10.7562 22.0686 10.456 22.4441 10.1602C22.8349 9.85232 23.2002 9.49752 23.4537 9.23692L23.1671 8.95797L22.8804 8.67901C22.6381 8.92796 22.3006 9.25486 21.949 9.53178C21.5822 9.82078 21.2575 10.0085 21.0342 10.0501L21.1075 10.4433ZM23.1671 8.95797L22.9485 9.29299L23.926 9.93068L24.1446 9.59566L24.3631 9.26065L23.3856 8.62295L23.1671 8.95797ZM24.1446 9.59566L23.8579 9.31672C23.4898 9.69506 23.0422 10.212 22.5375 10.6928C22.2911 10.9276 22.0472 11.1372 21.8175 11.2958C21.5827 11.458 21.3904 11.5474 21.245 11.5745L21.3184 11.9677L21.3918 12.3609C21.6981 12.3038 21.9993 12.1425 22.2721 11.9541C22.55 11.7622 22.8278 11.5212 23.0893 11.272C23.6007 10.7849 24.1145 10.2002 24.4313 9.87461L24.1446 9.59566ZM21.3184 11.9677L21.2452 11.5745C21.1394 11.5942 21.0302 11.6085 20.9184 11.6194L20.9571 12.0175L20.9958 12.4157C21.1248 12.4031 21.2577 12.3859 21.3916 12.361L21.3184 11.9677ZM20.9571 12.0175H20.5571V13.6601H20.9571H21.3571V12.0175H20.9571ZM20.9571 13.6601L21.2989 13.8679C22.4214 12.0213 23.7331 10.6351 25.0869 9.82721C26.4351 9.02267 27.8106 8.79739 29.1076 9.23089L29.2344 8.85152L29.3612 8.47215C27.7969 7.94931 26.1793 8.24371 24.677 9.14024C23.1803 10.0334 21.784 11.5297 20.6153 13.4523L20.9571 13.6601ZM29.2344 8.85152L29.1076 9.23088C31.0785 9.88983 32.6191 11.994 33.4453 15.0164C34.2666 18.021 34.3519 21.8425 33.4893 25.7596L33.8799 25.8457L34.2706 25.9317C35.1571 21.9059 35.077 17.9516 34.217 14.8055C33.3619 11.6773 31.7051 9.25582 29.3613 8.47216L29.2344 8.85152ZM33.8799 25.8457L33.4893 25.7596C32.6262 29.6783 30.9867 32.9114 29.0592 34.9778C27.1255 37.0508 24.9729 37.8882 23.0263 37.2378L22.8995 37.6171L22.7727 37.9965C25.1409 38.7879 27.6038 37.711 29.6442 35.5235C31.6909 33.3294 33.3842 29.9559 34.2706 25.9317L33.8799 25.8457ZM22.8995 37.6171L23.0263 37.2378C21.995 36.893 21.0838 36.1539 20.3252 35.0857L19.9991 35.3173L19.673 35.5489C20.5043 36.7195 21.5433 37.5855 22.7727 37.9965L22.8995 37.6171ZM19.9991 35.3173L19.673 35.0857C18.9143 36.1536 18.0045 36.8932 16.9738 37.2378L17.1007 37.6171L17.2275 37.9965C18.4568 37.5855 19.4942 36.7187 20.3252 35.549L19.9991 35.3173ZM17.1007 37.6171L16.9739 37.2378C15.0272 37.8884 12.8746 37.0512 10.9409 34.9784C9.01343 32.9123 7.37396 29.6793 6.51082 25.7606L6.12018 25.8466L5.72955 25.9327C6.61592 29.9569 8.30926 33.3302 10.3559 35.5241C12.3964 37.7114 14.8592 38.788 17.2274 37.9965L17.1007 37.6171ZM6.12018 25.8466L6.51082 25.7606C5.64809 21.8434 5.73335 18.0219 6.55469 15.0174C7.38094 11.9949 8.92159 9.89082 10.8925 9.23186L10.7657 8.8525L10.6389 8.47314C8.29495 9.2568 6.63816 11.6782 5.78301 14.8064C4.92296 17.9525 4.84289 21.9068 5.72954 25.9327L6.12018 25.8466ZM10.7657 8.8525L10.8925 9.23187C12.1898 8.79828 13.5653 9.02384 14.9134 9.8289C16.2672 10.6374 17.5788 12.0243 18.7012 13.8717L19.043 13.664L19.3849 13.4563C18.2163 11.5329 16.8202 10.0358 15.3236 9.14205C13.8213 8.24493 12.2036 7.95017 10.6389 8.47313L10.7657 8.8525ZM19.043 13.664H19.443V11.7539H19.043H18.643V13.664H19.043ZM19.043 11.7539L19.1863 11.3804C19.0612 11.3324 18.9409 11.2814 18.8264 11.2242L18.6475 11.582L18.4687 11.9398C18.6131 12.012 18.7586 12.0732 18.8998 12.1273L19.043 11.7539ZM18.6475 11.582L18.8264 11.2242C18.0613 10.8416 17.3967 10.2093 16.9172 9.39307L16.5723 9.59566L16.2274 9.79826C16.7784 10.7363 17.5536 11.4822 18.4686 11.9398L18.6475 11.582ZM16.5723 9.59566L16.9172 9.39309C16.4377 8.57663 16.1661 7.61344 16.1382 6.61669L15.7383 6.62789L15.3385 6.63909C15.37 7.76438 15.6765 8.8602 16.2274 9.79823L16.5723 9.59566ZM15.7383 6.62789L16.1382 6.61671C16.1103 5.61989 16.3273 4.63718 16.7609 3.78485L16.4044 3.60348L16.0478 3.4221C15.5513 4.3981 15.307 5.51386 15.3385 6.63907L15.7383 6.62789ZM16.4044 3.60348L16.7609 3.78488C17.1946 2.93258 17.8247 2.2496 18.569 1.80903L18.3653 1.4648L18.1616 1.12058C17.2758 1.64482 16.5446 2.44595 16.0479 3.42207L16.4044 3.60348ZM18.3653 1.4648L18.569 1.80905C19.3123 1.36923 20.1426 1.18646 20.9643 1.27649L21.0079 0.878867L21.0514 0.481246C20.0514 0.371678 19.0483 0.595865 18.1616 1.12055L18.3653 1.4648ZM17.337 20.5459L17.7285 20.4641C17.2734 18.2853 16.3554 16.4453 15.2132 15.239C14.0749 14.0369 12.6527 13.4127 11.2454 13.8589L11.3663 14.2402L11.4872 14.6215C12.4899 14.3036 13.6095 14.7089 14.6323 15.7891C15.6512 16.8651 16.5135 18.5601 16.9454 20.6277L17.337 20.5459ZM11.3663 14.2402L11.2453 13.8589C9.85934 14.2985 8.88493 15.6552 8.36833 17.3548C7.84728 19.069 7.76149 21.215 8.21691 23.3952L8.60846 23.3134L9.00001 23.2316C8.56843 21.1656 8.65661 19.1572 9.13375 17.5875C9.61535 16.003 10.4633 14.9462 11.4872 14.6215L11.3663 14.2402ZM8.60846 23.3134L8.21692 23.3952C8.67212 25.5739 9.59016 27.4135 10.7324 28.6195C11.8707 29.8214 13.2928 30.4455 14.7 29.9994L14.5792 29.6181L14.4583 29.2368C13.4556 29.5547 12.336 29.1493 11.3132 28.0694C10.2943 26.9936 9.43197 25.299 9.00001 23.2316L8.60846 23.3134ZM14.5792 29.6181L14.7001 29.9994C16.086 29.5598 17.0604 28.2033 17.577 26.504C18.0981 24.79 18.1839 22.6442 17.7285 20.4641L17.337 20.5459L16.9454 20.6276C17.3769 22.6936 17.2888 24.7018 16.8116 26.2713C16.33 27.8555 15.4821 28.9121 14.4582 29.2368L14.5792 29.6181ZM28.6339 14.2402L28.7547 13.8589C27.3475 13.4128 25.9256 14.0369 24.7875 15.2388C23.6456 16.4448 22.7278 18.2845 22.2726 20.4631L22.6641 20.5449L23.0557 20.6267C23.4877 18.5593 24.3498 16.8646 25.3684 15.7888C26.391 14.7089 27.5103 14.3036 28.513 14.6215L28.6339 14.2402ZM22.6641 20.5449L22.2726 20.4631C21.8172 22.6433 21.9029 24.7894 22.424 26.5036C22.9405 28.2032 23.9149 29.5599 25.301 29.9994L25.4219 29.6181L25.5428 29.2368C24.5189 28.9122 23.671 27.8554 23.1894 26.271C22.7123 24.7012 22.6241 22.6928 23.0557 20.6267L22.6641 20.5449ZM25.4219 29.6181L25.3011 29.9995C26.7083 30.4452 28.1303 29.8208 29.2683 28.6188C30.4103 27.4125 31.3281 25.5728 31.7832 23.3943L31.3917 23.3125L31.0001 23.2307C30.5682 25.298 29.7061 26.9928 28.6874 28.0688C27.6648 29.1489 26.5454 29.5544 25.5427 29.2368L25.4219 29.6181ZM31.3917 23.3125L31.7832 23.3942C32.2386 21.2141 32.1528 19.0683 31.6317 17.3543C31.1151 15.655 30.1407 14.2985 28.7548 13.8589L28.6339 14.2402L28.5129 14.6215C29.5368 14.9462 30.3847 16.0028 30.8663 17.587C31.3434 19.1565 31.4316 21.1647 31.0001 23.2307L31.3917 23.3125Z" fill="black" mask="url(#path-1-inside-1_30_10)"/>
<mask id="path-3-inside-2_30_10" fill="white">
<path d="M23.1562 5.71606H24.7148V6.90649H23.1562V9.19849H21.6475V6.90649H20V5.71606H21.6475V4.61548H23.1562V5.71606Z"/>
</mask>
<path d="M23.1562 5.71606H24.7148V6.90649H23.1562V9.19849H21.6475V6.90649H20V5.71606H21.6475V4.61548H23.1562V5.71606Z" fill="white"/>
<path d="M23.1562 5.71606H22.9562V5.91606H23.1562V5.71606ZM24.7148 5.71606H24.9148V5.51606H24.7148V5.71606ZM24.7148 6.90649V7.10649H24.9148V6.90649H24.7148ZM23.1562 6.90649V6.70649H22.9562V6.90649H23.1562ZM23.1562 9.19849V9.39849H23.3563V9.19849H23.1562ZM21.6475 9.19849H21.4475V9.39849H21.6475V9.19849ZM21.6475 6.90649H21.8475V6.70649H21.6475V6.90649ZM20 6.90649H19.8V7.10649H20V6.90649ZM20 5.71606V5.51606H19.8V5.71606H20ZM21.6475 5.71606V5.91606H21.8475V5.71606H21.6475ZM21.6475 4.61548V4.41548H21.4475V4.61548H21.6475ZM23.1562 4.61548H23.3563V4.41548H23.1562V4.61548ZM23.1562 5.71606V5.91606H24.7148V5.71606V5.51606H23.1562V5.71606ZM24.7148 5.71606H24.5148V6.90649H24.7148H24.9148V5.71606H24.7148ZM24.7148 6.90649V6.70649H23.1562V6.90649V7.10649H24.7148V6.90649ZM23.1562 6.90649H22.9562V9.19849H23.1562H23.3563V6.90649H23.1562ZM23.1562 9.19849V8.99849H21.6475V9.19849V9.39849H23.1562V9.19849ZM21.6475 9.19849H21.8475V6.90649H21.6475H21.4475V9.19849H21.6475ZM21.6475 6.90649V6.70649H20V6.90649V7.10649H21.6475V6.90649ZM20 6.90649H20.2V5.71606H20H19.8V6.90649H20ZM20 5.71606V5.91606H21.6475V5.71606V5.51606H20V5.71606ZM21.6475 5.71606H21.8475V4.61548H21.6475H21.4475V5.71606H21.6475ZM21.6475 4.61548V4.81548H23.1562V4.61548V4.41548H21.6475V4.61548ZM23.1562 4.61548H22.9562V5.71606H23.1562H23.3563V4.61548H23.1562Z" fill="black" mask="url(#path-3-inside-2_30_10)"/>
<rect x="7.80071" y="34.697" width="24.6" height="3.05627" fill="white" stroke="black" stroke-width="0.4"/>
</svg>
