<svg width="40" height="40" viewBox="0 0 40 40" fill="none" xmlns="http://www.w3.org/2000/svg">
<path d="M26.5 30C25.3333 28.3333 24.1 25.5 28.5 27.5L28.5 21L27 19.5L28.5 20L29 12C28.1667 11.3333 26.9 10.2 28.5 11C28.8333 10 28.5 7.6 24.5 6L18.5 4.5C17.9194 4.35485 16.8332 4.00746 16.5624 3.65598L17.5 6V6.5C15.7722 7.06501 15.0678 7.48448 14.5 8.5C14.3333 9.33333 13.6 11.3 12 12.5C11.5 13.1667 10.4 14.4 9.99999 14C9.61369 14.0712 9.63822 14.431 9.99999 15.5C10.1667 16.1667 10.8 17.6 12 18H13L14.5 17H18C18.6667 16.6667 20 15.8 20 15H20.5V15.5C19.6667 17 17.6 20.2 16 21C14.8333 22 12.5 24.3 12.5 25.5V27C13.1667 27.5 14.5 28.8 14.5 30L26.5 30Z" fill="white"/>
<path d="M12.5 25.5C12.5 24.3 14.8333 22 16 21C17.6 20.2 19.6667 17 20.5 15.5V15H20C20 15.8 18.6667 16.6667 18 17H14.5L13 18H12C10.8 17.6 10.1667 16.1667 9.99999 15.5C9.63822 14.431 9.61369 14.0712 9.99999 14C10.4 14.4 11.5 13.1667 12 12.5C13.6 11.3 14.3333 9.33333 14.5 8.5C15.0678 7.48448 15.7722 7.06501 17.5 6.5V6L16.5624 3.65598M12.5 25.5C12.5 26.7 12.5 27 12.5 27M12.5 25.5V27M12.5 27C13.1667 27.5 14.5 28.8 14.5 30L26.5 30C25.3333 28.3333 24.1 25.5 28.5 27.5L28.5 21L27 19.5L28.5 20L29 12C28.1667 11.3333 26.9 10.2 28.5 11C28.8333 10 28.5 7.6 24.5 6L18.5 4.5C17.9194 4.35485 16.8332 4.00746 16.5624 3.65598M16.5624 3.65598L16.5 3.5C16.5 3.55165 16.5222 3.60386 16.5624 3.65598Z" stroke="black"/>
<path d="M14 30.25H26C26.4142 30.25 26.75 30.5858 26.75 31V31.75H13.25V31C13.25 30.5858 13.5858 30.25 14 30.25Z" fill="white" stroke="black" stroke-width="0.5"/>
<path d="M13 32.25H27C27.4142 32.25 27.75 32.5858 27.75 33V33.75H12.25V33C12.25 32.5858 12.5858 32.25 13 32.25Z" fill="white" stroke="black" stroke-width="0.5"/>
</svg>
