<svg width="40" height="40" viewBox="0 0 40 40" fill="none" xmlns="http://www.w3.org/2000/svg">
<path d="M19.2891 3.31242C25.6578 3.31242 28.9434 9.87445 28.9434 16.2431C28.9434 17.9487 28.6957 19.6038 28.2139 21.1142C28.4078 21.7553 28.6616 22.3505 28.9717 22.8749C29.7414 24.1761 30.7917 24.9439 31.9024 25.0185C33.013 25.0929 34.0985 24.4679 34.9317 23.2743C35.7646 22.0805 35.9322 19.0435 36.3731 18.6142C36.8141 18.1856 37.0987 18.2352 37.3887 18.7499C37.6789 19.265 36.6368 23.0372 35.6065 24.5136C34.5761 25.9897 33.2329 26.763 31.8594 26.6708C30.4861 26.5785 29.188 25.6283 28.2364 24.0195C27.995 23.6113 27.7803 23.1688 27.5948 22.6991C26.6153 24.7889 25.1132 26.4732 23.1143 27.4267C23.1729 29.1277 23.4878 31.3381 24.1768 32.4638C24.9464 33.721 25.9959 34.4639 27.1065 34.5361C28.2172 34.6081 29.3035 34.0039 30.1368 32.8505C30.97 31.697 31.1371 28.7609 31.5782 28.3466C32.0192 27.9325 32.3037 27.9809 32.5938 28.4784C32.884 28.9762 31.841 32.6215 30.8106 34.0478C29.7802 35.474 28.438 36.2208 27.0645 36.1318C25.6912 36.0426 24.3931 35.1248 23.4415 33.5702C22.6061 32.2055 21.901 29.9328 21.7413 27.9404C20.9417 28.1648 20.0789 28.287 19.1534 28.287C18.5692 28.287 18.0108 28.2301 17.4786 28.1249C17.2916 30.0713 16.6084 32.2465 15.7989 33.5693C14.8472 35.1241 13.5484 36.0427 12.1749 36.1318C10.8014 36.2208 9.45916 35.474 8.42877 34.0478C7.39849 32.6217 6.35578 28.9769 6.64557 28.4784C6.93569 27.9808 7.22019 27.9325 7.6612 28.3466C8.10229 28.7609 8.2703 31.6971 9.10358 32.8505C9.93683 34.0037 11.0223 34.6071 12.1329 34.5351C13.2435 34.463 14.2939 33.7211 15.0635 32.4638C15.7128 31.403 16.0269 29.3787 16.1104 27.7255C14.066 26.9221 12.488 25.3145 11.3868 23.2919C11.2675 23.5443 11.14 23.7879 11.003 24.0195C10.0513 25.6283 8.7533 26.5786 7.37995 26.6708C6.00646 26.763 4.66426 25.9897 3.63385 24.5136C2.60345 23.0375 1.5605 19.265 1.85065 18.7499C2.14071 18.235 2.42541 18.1849 2.86627 18.6132C3.30737 19.0419 3.47538 22.0807 4.30866 23.2743C5.14193 24.468 6.22724 25.093 7.33795 25.0185C8.44847 24.9439 9.49806 24.1758 10.2676 22.8749C10.4433 22.578 10.6002 22.2575 10.7393 21.9198C9.91708 19.9096 9.49909 17.6206 9.49909 15.3554C9.49925 8.98703 12.9208 3.31264 19.2891 3.31242Z" fill="white"/>
<path d="M19.2891 3.31242L19.2891 3.11242L19.2891 3.11242L19.2891 3.31242ZM28.9434 16.2431L29.1434 16.2431L29.1434 16.2431L28.9434 16.2431ZM28.2139 21.1142L28.0234 21.0534L28.0045 21.1126L28.0225 21.1721L28.2139 21.1142ZM28.9717 22.8749L28.7996 22.9767L28.7996 22.9767L28.9717 22.8749ZM31.9024 25.0185L31.889 25.218L31.889 25.218L31.9024 25.0185ZM34.9317 23.2743L35.0957 23.3888L35.0957 23.3888L34.9317 23.2743ZM36.3731 18.6142L36.2337 18.4708L36.2336 18.4709L36.3731 18.6142ZM37.3887 18.7499L37.563 18.6518L37.563 18.6517L37.3887 18.7499ZM35.6065 24.5136L35.7705 24.6281L35.7705 24.628L35.6065 24.5136ZM31.8594 26.6708L31.846 26.8704L31.846 26.8704L31.8594 26.6708ZM28.2364 24.0195L28.0642 24.1213L28.0642 24.1213L28.2364 24.0195ZM27.5948 22.6991L27.7808 22.6257L27.6105 22.1945L27.4137 22.6143L27.5948 22.6991ZM23.1143 27.4267L23.0282 27.2462L22.9099 27.3026L22.9144 27.4336L23.1143 27.4267ZM24.1768 32.4638L24.0062 32.5682L24.0062 32.5682L24.1768 32.4638ZM27.1065 34.5361L27.0935 34.7356L27.0936 34.7356L27.1065 34.5361ZM30.1368 32.8505L30.2989 32.9676L30.2989 32.9676L30.1368 32.8505ZM31.5782 28.3466L31.4413 28.2008L31.4413 28.2008L31.5782 28.3466ZM32.5938 28.4784L32.7666 28.3777L32.7666 28.3777L32.5938 28.4784ZM30.8106 34.0478L30.9727 34.1649L30.9727 34.1649L30.8106 34.0478ZM27.0645 36.1318L27.0516 36.3313L27.0516 36.3313L27.0645 36.1318ZM23.4415 33.5702L23.2709 33.6747L23.2709 33.6747L23.4415 33.5702ZM21.7413 27.9404L21.9406 27.9244L21.9212 27.6821L21.6872 27.7478L21.7413 27.9404ZM19.1534 28.287L19.1534 28.487L19.1534 28.487L19.1534 28.287ZM17.4786 28.1249L17.5174 27.9287L17.3006 27.8859L17.2795 28.1058L17.4786 28.1249ZM15.7989 33.5693L15.9695 33.6737L15.9695 33.6737L15.7989 33.5693ZM12.1749 36.1318L12.1878 36.3313L12.1878 36.3313L12.1749 36.1318ZM8.42877 34.0478L8.26666 34.1649L8.26666 34.1649L8.42877 34.0478ZM6.64557 28.4784L6.47279 28.3777L6.47267 28.3779L6.64557 28.4784ZM7.6612 28.3466L7.79812 28.2008L7.7981 28.2008L7.6612 28.3466ZM9.10358 32.8505L8.94146 32.9676L8.94147 32.9676L9.10358 32.8505ZM12.1329 34.5351L12.1458 34.7347L12.1458 34.7347L12.1329 34.5351ZM15.0635 32.4638L15.2341 32.5682L15.2341 32.5682L15.0635 32.4638ZM16.1104 27.7255L16.3102 27.7356L16.3174 27.592L16.1836 27.5394L16.1104 27.7255ZM11.3868 23.2919L11.5624 23.1963L11.3741 22.8504L11.2059 23.2065L11.3868 23.2919ZM11.003 24.0195L11.1751 24.1213L11.1751 24.1213L11.003 24.0195ZM7.37995 26.6708L7.39334 26.8704L7.39334 26.8704L7.37995 26.6708ZM3.63385 24.5136L3.46986 24.6281L3.46986 24.6281L3.63385 24.5136ZM1.85065 18.7499L1.67639 18.6518L1.67639 18.6518L1.85065 18.7499ZM2.86627 18.6132L3.00567 18.4698L3.00564 18.4698L2.86627 18.6132ZM4.30866 23.2743L4.14466 23.3888L4.14466 23.3888L4.30866 23.2743ZM7.33795 25.0185L7.35135 25.218L7.35136 25.218L7.33795 25.0185ZM10.2676 22.8749L10.4398 22.9768L10.4398 22.9767L10.2676 22.8749ZM10.7393 21.9198L10.9242 21.9961L10.9555 21.9201L10.9244 21.8441L10.7393 21.9198ZM9.49909 15.3554L9.29909 15.3554V15.3554H9.49909ZM19.2891 3.31242V3.51242C22.3938 3.51242 24.7499 5.10797 26.3379 7.50013C27.9293 9.89742 28.7434 13.0895 28.7434 16.2431L28.9434 16.2431L29.1434 16.2431C29.1434 13.028 28.3147 9.75479 26.6711 7.2789C25.0241 4.79789 22.5531 3.11242 19.2891 3.11242V3.31242ZM28.9434 16.2431H28.7434C28.7434 17.9297 28.4984 19.5641 28.0234 21.0534L28.2139 21.1142L28.4045 21.175C28.893 19.6435 29.1434 17.9677 29.1434 16.2431H28.9434ZM28.2139 21.1142L28.0225 21.1721C28.2204 21.8264 28.4801 22.4366 28.7996 22.9767L28.9717 22.8749L29.1439 22.7731C28.843 22.2643 28.5953 21.6843 28.4054 21.0563L28.2139 21.1142ZM28.9717 22.8749L28.7996 22.9767C29.5897 24.3125 30.6904 25.1376 31.889 25.218L31.9024 25.0185L31.9158 24.8189C30.893 24.7503 29.8931 24.0397 29.1439 22.7731L28.9717 22.8749ZM31.9024 25.0185L31.889 25.218C33.091 25.2985 34.2364 24.6197 35.0957 23.3888L34.9317 23.2743L34.7677 23.1599C33.9606 24.316 32.935 24.8872 31.9158 24.8189L31.9024 25.0185ZM34.9317 23.2743L35.0957 23.3888C35.3221 23.0644 35.496 22.6268 35.6376 22.1611C35.7801 21.6928 35.8944 21.1804 35.9952 20.6985C36.0968 20.2125 36.1836 19.7628 36.2731 19.404C36.3177 19.2251 36.3614 19.0756 36.4055 18.9602C36.4521 18.8386 36.4904 18.7791 36.5126 18.7575L36.3731 18.6142L36.2336 18.4709C36.1456 18.5566 36.0822 18.6859 36.032 18.8172C35.9793 18.9548 35.9311 19.1223 35.885 19.3072C35.793 19.6759 35.7032 20.1406 35.6036 20.6167C35.5033 21.0969 35.3919 21.5945 35.255 22.0447C35.1172 22.4977 34.9578 22.8874 34.7677 23.1599L34.9317 23.2743ZM36.3731 18.6142L36.5125 18.7576C36.7273 18.5488 36.8467 18.5174 36.9093 18.5263C36.9714 18.5351 37.0733 18.5976 37.2145 18.8481L37.3887 18.7499L37.563 18.6517C37.4141 18.3875 37.2287 18.1678 36.9657 18.1303C36.7033 18.0929 36.4599 18.2509 36.2337 18.4708L36.3731 18.6142ZM37.3887 18.7499L37.2145 18.8481C37.2143 18.8477 37.2167 18.8521 37.2201 18.8636C37.2234 18.8749 37.2269 18.8907 37.2299 18.9116C37.2359 18.954 37.239 19.0103 37.2377 19.0814C37.2352 19.2234 37.2158 19.4084 37.1801 19.6281C37.1089 20.0665 36.9759 20.6238 36.801 21.2145C36.4494 22.4017 35.9386 23.6883 35.4425 24.3991L35.6065 24.5136L35.7705 24.628C36.3048 23.8625 36.8301 22.5248 37.1845 21.328C37.3627 20.7267 37.5002 20.1522 37.575 19.6922C37.6122 19.4628 37.6347 19.257 37.6377 19.0884C37.6392 19.0041 37.6359 18.9252 37.6258 18.855C37.6161 18.7872 37.5984 18.7147 37.563 18.6518L37.3887 18.7499ZM35.6065 24.5136L35.4425 24.3991C34.4382 25.8378 33.1549 26.5573 31.8728 26.4713L31.8594 26.6708L31.846 26.8704C33.3109 26.9687 34.714 26.1415 35.7705 24.6281L35.6065 24.5136ZM31.8594 26.6708L31.8729 26.4713C30.5875 26.3848 29.3398 25.4921 28.4085 23.9176L28.2364 24.0195L28.0642 24.1213C29.0363 25.7646 30.3848 26.7721 31.846 26.8704L31.8594 26.6708ZM28.2364 24.0195L28.4085 23.9176C28.1729 23.5192 27.9627 23.0863 27.7808 22.6257L27.5948 22.6991L27.4088 22.7726C27.5979 23.2513 27.8171 23.7034 28.0642 24.1213L28.2364 24.0195ZM27.5948 22.6991L27.4137 22.6143C26.4499 24.6705 24.9777 26.3162 23.0282 27.2462L23.1143 27.4267L23.2004 27.6072C25.2487 26.6301 26.7806 24.9074 27.7759 22.784L27.5948 22.6991ZM23.1143 27.4267L22.9144 27.4336C22.944 28.2924 23.0383 29.2806 23.2127 30.1983C23.3862 31.1113 23.6425 31.974 24.0062 32.5682L24.1768 32.4638L24.3474 32.3594C24.0221 31.8278 23.7765 31.0225 23.6056 30.1236C23.4357 29.2295 23.3432 28.262 23.3142 27.4198L23.1143 27.4267ZM24.1768 32.4638L24.0062 32.5682C24.7976 33.861 25.8979 34.6579 27.0935 34.7356L27.1065 34.5361L27.1195 34.3365C26.094 34.2698 25.0952 33.581 24.3474 32.3594L24.1768 32.4638ZM27.1065 34.5361L27.0936 34.7356C28.2922 34.8134 29.4381 34.1592 30.2989 32.9676L30.1368 32.8505L29.9747 32.7334C29.1689 33.8487 28.1423 34.4028 27.1195 34.3365L27.1065 34.5361ZM30.1368 32.8505L30.2989 32.9676C30.5261 32.6531 30.7004 32.229 30.8423 31.7784C30.9849 31.3252 31.0993 30.8295 31.2 30.3636C31.3017 29.8935 31.3883 29.4593 31.4777 29.1129C31.5223 28.9402 31.5658 28.7963 31.6097 28.6854C31.656 28.5686 31.6938 28.5124 31.7151 28.4924L31.5782 28.3466L31.4413 28.2008C31.3524 28.2843 31.2884 28.4106 31.2379 28.5381C31.185 28.6716 31.1366 28.834 31.0904 29.0129C30.9984 29.3696 30.9085 29.8192 30.809 30.2791C30.7087 30.7432 30.5975 31.2237 30.4607 31.6583C30.3231 32.0956 30.1641 32.4711 29.9747 32.7334L30.1368 32.8505ZM31.5782 28.3466L31.7151 28.4924C31.9287 28.2918 32.0493 28.2596 32.1151 28.2687C32.1796 28.2777 32.281 28.339 32.421 28.5792L32.5938 28.4784L32.7666 28.3777C32.6165 28.1203 32.4306 27.9087 32.17 27.8725C31.9109 27.8366 31.6687 27.9873 31.4413 28.2008L31.5782 28.3466ZM32.5938 28.4784L32.421 28.5792C32.421 28.5791 32.4288 28.5942 32.4351 28.6366C32.441 28.6766 32.444 28.7303 32.4428 28.7985C32.4403 28.9348 32.421 29.1129 32.3853 29.3249C32.3141 29.7478 32.1812 30.2858 32.0062 30.8563C31.6545 32.003 31.1438 33.245 30.6485 33.9307L30.8106 34.0478L30.9727 34.1649C31.5078 33.4242 32.0338 32.1304 32.3886 30.9735C32.567 30.3921 32.7048 29.8364 32.7797 29.3913C32.8171 29.1692 32.8397 28.9697 32.8427 28.8058C32.8442 28.7239 32.8409 28.6468 32.8308 28.5781C32.8209 28.5117 32.8029 28.44 32.7666 28.3777L32.5938 28.4784ZM30.8106 34.0478L30.6485 33.9307C29.6456 35.3188 28.363 36.0155 27.0775 35.9322L27.0645 36.1318L27.0516 36.3313C28.5129 36.4261 29.9148 35.6292 30.9727 34.1649L30.8106 34.0478ZM27.0645 36.1318L27.0775 35.9322C25.7892 35.8485 24.5418 34.9847 23.612 33.4658L23.4415 33.5702L23.2709 33.6747C24.2444 35.2649 25.5933 36.2366 27.0516 36.3313L27.0645 36.1318ZM23.4415 33.5702L23.6121 33.4658C22.7957 32.1322 22.0983 29.8909 21.9406 27.9244L21.7413 27.9404L21.5419 27.9563C21.7037 29.9746 22.4165 32.2788 23.2709 33.6747L23.4415 33.5702ZM21.7413 27.9404L21.6872 27.7478C20.9057 27.9672 20.0611 28.087 19.1534 28.087L19.1534 28.287L19.1534 28.487C20.0967 28.487 20.9777 28.3624 21.7953 28.1329L21.7413 27.9404ZM19.1534 28.287V28.087C18.5822 28.087 18.0368 28.0314 17.5174 27.9287L17.4786 28.1249L17.4398 28.3211C17.9847 28.4289 18.5561 28.487 19.1534 28.487V28.287ZM17.4786 28.1249L17.2795 28.1058C17.0948 30.0281 16.419 32.1729 15.6283 33.4649L15.7989 33.5693L15.9695 33.6737C16.7978 32.3202 17.4884 30.1144 17.6777 28.144L17.4786 28.1249ZM15.7989 33.5693L15.6283 33.4648C14.6984 34.984 13.4504 35.8486 12.1619 35.9322L12.1749 36.1318L12.1878 36.3313C13.6463 36.2368 14.9959 35.2642 15.9695 33.6737L15.7989 33.5693ZM12.1749 36.1318L12.1619 35.9322C10.8764 36.0155 9.59376 35.3188 8.59089 33.9307L8.42877 34.0478L8.26666 34.1649C9.32457 35.6292 10.7265 36.4261 12.1878 36.3313L12.1749 36.1318ZM8.42877 34.0478L8.59089 33.9307C8.09564 33.2451 7.58504 32.0033 7.23336 30.8566C7.05842 30.2862 6.92551 29.7481 6.85428 29.3252C6.81859 29.1132 6.79924 28.9351 6.7967 28.7986C6.79543 28.7304 6.79847 28.6767 6.80438 28.6367C6.8073 28.6168 6.81067 28.6022 6.81377 28.5919C6.81693 28.5814 6.81908 28.5779 6.81847 28.579L6.64557 28.4784L6.47267 28.3779C6.43647 28.4402 6.41846 28.5118 6.40866 28.5783C6.39852 28.647 6.39525 28.7241 6.39677 28.8061C6.39981 28.9699 6.42243 29.1695 6.45984 29.3916C6.53481 29.8368 6.67263 30.3925 6.85094 30.9739C7.20572 32.1307 7.73163 33.4243 8.26666 34.1649L8.42877 34.0478ZM6.64557 28.4784L6.81836 28.5792C6.95839 28.3389 7.05981 28.2776 7.12424 28.2687C7.19008 28.2596 7.31069 28.2918 7.52429 28.4924L7.6612 28.3466L7.7981 28.2008C7.5707 27.9873 7.32855 27.8366 7.06936 27.8725C6.80876 27.9086 6.62287 28.1203 6.47279 28.3777L6.64557 28.4784ZM7.6612 28.3466L7.52428 28.4924C7.54564 28.5125 7.58339 28.5686 7.62971 28.6855C7.67366 28.7963 7.71724 28.9403 7.76183 29.1129C7.85131 29.4594 7.93809 29.8936 8.03984 30.3637C8.14068 30.8296 8.25517 31.3252 8.39793 31.7785C8.53985 32.2291 8.71428 32.6532 8.94146 32.9676L9.10358 32.8505L9.2657 32.7334C9.07624 32.4711 8.91719 32.0956 8.77946 31.6583C8.64257 31.2237 8.53126 30.7432 8.43079 30.2791C8.33125 29.8192 8.24124 29.3696 8.14912 29.0129C8.10291 28.834 8.05449 28.6716 8.00156 28.5381C7.95102 28.4106 7.88702 28.2843 7.79812 28.2008L7.6612 28.3466ZM9.10358 32.8505L8.94147 32.9676C9.80227 34.159 10.9474 34.8124 12.1458 34.7347L12.1329 34.5351L12.1199 34.3355C11.0972 34.4018 10.0714 33.8484 9.26569 32.7334L9.10358 32.8505ZM12.1329 34.5351L12.1458 34.7347C13.3415 34.6571 14.4426 33.8613 15.2341 32.5682L15.0635 32.4638L14.893 32.3594C14.1452 33.581 13.1456 34.2689 12.1199 34.3355L12.1329 34.5351ZM15.0635 32.4638L15.2341 32.5682C15.5772 32.0077 15.8236 31.2091 15.9952 30.3563C16.1677 29.4993 16.268 28.5698 16.3102 27.7356L16.1104 27.7255L15.9107 27.7154C15.8693 28.5344 15.7708 29.4437 15.6031 30.2773C15.4344 31.1152 15.1992 31.8591 14.893 32.3594L15.0635 32.4638ZM16.1104 27.7255L16.1836 27.5394C14.1931 26.7572 12.647 25.1884 11.5624 23.1963L11.3868 23.2919L11.2111 23.3875C12.3289 25.4406 13.9389 27.0871 16.0373 27.9117L16.1104 27.7255ZM11.3868 23.2919L11.2059 23.2065C11.089 23.4541 10.9643 23.692 10.8308 23.9176L11.003 24.0195L11.1751 24.1213C11.3157 23.8837 11.4461 23.6346 11.5676 23.3773L11.3868 23.2919ZM11.003 24.0195L10.8309 23.9176C9.89953 25.492 8.65192 26.385 7.36655 26.4713L7.37995 26.6708L7.39334 26.8704C8.85469 26.7723 10.2031 25.7646 11.1751 24.1213L11.003 24.0195ZM7.37995 26.6708L7.36655 26.4713C6.08449 26.5573 4.80221 25.8379 3.79785 24.3991L3.63385 24.5136L3.46986 24.6281C4.52632 26.1415 5.92843 26.9687 7.39334 26.8704L7.37995 26.6708ZM3.63385 24.5136L3.79785 24.3991C3.30174 23.6884 2.79066 22.4018 2.4388 21.2146C2.26376 20.6239 2.1307 20.0665 2.05937 19.6281C2.02364 19.4084 2.0042 19.2234 2.00167 19.0814C2.00041 19.0103 2.00347 18.954 2.00953 18.9116C2.01253 18.8907 2.01601 18.8749 2.0193 18.8636C2.02267 18.8521 2.02511 18.8477 2.02491 18.8481L1.85065 18.7499L1.67639 18.6518C1.64096 18.7147 1.62325 18.7872 1.61355 18.855C1.60352 18.9252 1.60024 19.0042 1.60174 19.0885C1.60474 19.2571 1.62723 19.4628 1.66456 19.6923C1.73939 20.1523 1.87707 20.7268 2.05529 21.3282C2.40997 22.525 2.93556 23.8627 3.46986 24.6281L3.63385 24.5136ZM1.85065 18.7499L2.02491 18.8481C2.16608 18.5975 2.2681 18.5348 2.33035 18.5258C2.3929 18.5168 2.51227 18.5481 2.72691 18.7567L2.86627 18.6132L3.00564 18.4698C2.77941 18.25 2.536 18.0922 2.27347 18.1299C2.01064 18.1676 1.82528 18.3875 1.67639 18.6518L1.85065 18.7499ZM2.86627 18.6132L2.72688 18.7566C2.74906 18.7782 2.78737 18.8376 2.83395 18.9592C2.87814 19.0745 2.92186 19.2241 2.96651 19.4029C3.05607 19.7618 3.14295 20.2117 3.24463 20.6979C3.34545 21.1799 3.45985 21.6924 3.60244 22.161C3.74419 22.6268 3.91822 23.0644 4.14466 23.3888L4.30866 23.2743L4.47265 23.1599C4.28245 22.8874 4.123 22.4976 3.98511 22.0445C3.84805 21.5942 3.73664 21.0964 3.63616 20.616C3.53655 20.1397 3.44664 19.6749 3.3546 19.3061C3.30845 19.1211 3.26016 18.9536 3.20748 18.8161C3.15719 18.6848 3.09377 18.5554 3.00567 18.4698L2.86627 18.6132ZM4.30866 23.2743L4.14466 23.3888C5.00401 24.6198 6.14924 25.2987 7.35135 25.218L7.33795 25.0185L7.32456 24.8189C6.30525 24.8873 5.27986 24.3162 4.47265 23.1599L4.30866 23.2743ZM7.33795 25.0185L7.35136 25.218C8.54983 25.1375 9.64979 24.3122 10.4398 22.9768L10.2676 22.8749L10.0955 22.7731C9.34632 24.0395 8.34712 24.7502 7.32455 24.8189L7.33795 25.0185ZM10.2676 22.8749L10.4398 22.9767C10.6209 22.6705 10.7819 22.3414 10.9242 21.9961L10.7393 21.9198L10.5544 21.8436C10.4184 22.1737 10.2657 22.4854 10.0955 22.7731L10.2676 22.8749ZM10.7393 21.9198L10.9244 21.8441C10.1129 19.8602 9.69909 17.5972 9.69909 15.3554H9.49909H9.29909C9.29909 17.6441 9.72124 19.9591 10.5542 21.9956L10.7393 21.9198ZM9.49909 15.3554L9.69909 15.3554C9.69917 12.2042 10.5461 9.23827 12.1664 7.06541C13.7826 4.898 16.1722 3.51253 19.2891 3.51242L19.2891 3.31242L19.2891 3.11242C16.0378 3.11253 13.5324 4.56436 11.8457 6.82629C10.1631 9.08277 9.29917 12.1382 9.29909 15.3554L9.49909 15.3554Z" fill="black"/>
<ellipse cx="23.7664" cy="13.9451" rx="1.32239" ry="1.18748" fill="black"/>
<ellipse cx="14.6223" cy="13.9451" rx="1.32239" ry="1.18748" fill="black"/>
<path d="M21.3739 18.5696C21.3739 18.1903 21.1891 17.8264 20.8601 17.5582C20.5311 17.2899 20.0849 17.1392 19.6197 17.1392C19.1544 17.1392 18.7083 17.2899 18.3793 17.5582C18.0503 17.8264 17.8655 18.1903 17.8655 18.5696L19.6197 18.5696H21.3739Z" fill="black"/>
<rect x="5.08721" y="36.2149" width="29.8255" height="2.09972" fill="white" stroke="black" stroke-width="0.4"/>
</svg>
