<svg width="40" height="40" viewBox="0 0 40 40" fill="none" xmlns="http://www.w3.org/2000/svg">
<path d="M10 33.5H30C30.2761 33.5 30.5 33.7239 30.5 34V36.5H9.5V34C9.5 33.7239 9.72386 33.5 10 33.5Z" fill="white" stroke="black"/>
<path d="M30 33C30 32.5 29.2903 31.4866 28.5 31C28.4999 31.1706 11.9061 30.7152 11.2031 31C10.5001 31.2848 9.49999 33 10 33C10.5 33 30 33.5 30 33Z" fill="white" stroke="black" stroke-width="0.8"/>
<rect x="13.5" y="15.5" width="13" height="15" fill="white" stroke="black"/>
<rect x="9.5" y="9.5" width="21" height="3" fill="white" stroke="black"/>
<rect x="27.3" y="5.3" width="3.4" height="3.4" fill="white" stroke="black" stroke-width="0.6"/>
<rect x="9.3" y="5.3" width="3.4" height="3.4" fill="white" stroke="black" stroke-width="0.6"/>
<rect x="18.3" y="5.3" width="3.4" height="3.4" fill="white" stroke="black" stroke-width="0.6"/>
<path d="M28.3333 15H28.8889L30 13H10L11.6667 15H12.7778H28.3333Z" fill="white" stroke="black" stroke-width="0.7"/>
</svg>
