<svg width="40" height="40" viewBox="0 0 40 40" fill="none" xmlns="http://www.w3.org/2000/svg">
<rect x="7.2" y="34.2" width="27.6" height="2.6" fill="white" stroke="black" stroke-width="0.4"/>
<rect x="1.2" y="17.2" width="37.6" height="16.6" fill="white" stroke="black" stroke-width="0.4"/>
<rect x="4" y="15" width="5" height="2" fill="white"/>
<rect x="13" y="15" width="5" height="2" fill="white"/>
<rect x="22" y="15" width="5" height="2" fill="white"/>
<rect x="31" y="15" width="5" height="2" fill="white"/>
<path d="M4 17H9H18H27H36" stroke="black" stroke-width="0.1"/>
<path d="M35 22H39V26H35M35 22V26M35 22H30M35 26H30M30 26V22M30 26H25.5M30 22H25.5M25.5 22V26M25.5 22H20.5M25.5 26H20.5M20.5 26V22M20.5 26H14M20.5 22H14M14 22V26M14 22H11.5M14 26H11.5M11.5 26V22M11.5 26H8.5M11.5 22H8.5M8.5 22V26M8.5 22H5M8.5 26H5M5 26H1V22H5M5 26V22" stroke="black" stroke-width="0.1"/>
<path d="M34.8919 30H39V34H34.8919M34.8919 30V34M34.8919 30H29.7568M34.8919 34H29.7568M29.7568 34V30M29.7568 34H25.1351M29.7568 30H25.1351M25.1351 30V34M25.1351 30H20M25.1351 34H20M20 34V30M20 34H13.3243M20 30H13.3243M13.3243 30V34M13.3243 30H10.7568M13.3243 34H10.7568M10.7568 34V30M10.7568 34H7.67568M10.7568 30H7.67568M7.67568 30V34M7.67568 30H4.08108M7.67568 34H4.08108M4.08108 34H1V30H4.08108M4.08108 34V30" stroke="black" stroke-width="0.1"/>
<path d="M34.8919 26H39V30H34.8919M34.8919 26V30M34.8919 26H29.7568M34.8919 30H29.7568M29.7568 30V26M29.7568 30H25.1351H20H16.6622M29.7568 26H25.1351H20H16.6622M13.3243 26V30M13.3243 26H10.7568M13.3243 26H16.6622M13.3243 30H10.7568M13.3243 30H16.6622M10.7568 30V26M10.7568 30H7.67568M10.7568 26H7.67568M7.67568 26V30M7.67568 26H4.08108M7.67568 30H4.08108M4.08108 30H1V26H4.08108M4.08108 30V26M16.6622 26V30" stroke="black" stroke-width="0.1"/>
<path d="M34.8919 18H39V22H34.8919M34.8919 18V22M34.8919 18H29.7568M34.8919 22H29.7568M29.7568 22V18M29.7568 22H25.1351H20H16.6622M29.7568 18H25.1351H20H16.6622M13.3243 18V22M13.3243 18H10.7568M13.3243 18H16.6622M13.3243 22H10.7568M13.3243 22H16.6622M10.7568 22V18M10.7568 22H7.67568M10.7568 18H7.67568M7.67568 18V22M7.67568 18H4.08108M7.67568 22H4.08108M4.08108 22H1V18H4.08108M4.08108 22V18M16.6622 18V22" stroke="black" stroke-width="0.1"/>
</svg>
